<svg width="179" height="64" viewBox="0 0 179 64" fill="none" xmlns="http://www.w3.org/2000/svg">
<path d="M66.7541 58.7946C66.9397 58.6715 67.1872 58.61 67.3728 58.5485C67.5584 58.4869 67.8058 58.4254 67.9914 58.4254C68.177 58.4254 68.4864 58.4254 68.7338 58.5485C68.9813 58.6715 69.2906 58.7946 69.6 59.0408C69.8474 59.2254 70.0949 59.3485 70.3424 59.41C70.5898 59.4715 70.8992 59.5331 71.2085 59.5331C71.5178 59.5331 71.8272 59.5331 72.1365 59.41C72.4458 59.2869 72.7551 59.1638 73.0026 58.9792C73.2501 58.7946 73.4357 58.5485 73.6213 58.3023C73.745 57.9946 73.8687 57.6869 73.8687 57.3177C73.8687 56.9485 73.8687 56.7638 73.745 56.5792C73.6831 56.3946 73.4975 56.21 73.3119 56.0254C73.1263 55.8408 72.817 55.6561 72.4458 55.5331C72.0746 55.3485 71.6416 55.2254 71.0848 55.0408C70.528 54.8561 69.9712 54.61 69.4144 54.3638C68.8576 54.1177 68.3626 53.81 67.9296 53.4408C67.4965 53.0715 67.1253 52.6408 66.8778 52.1485C66.6304 51.6561 66.4448 51.0408 66.4448 50.3023C66.4448 49.5638 66.5685 49.0715 66.8778 48.5792C67.1872 48.0254 67.5584 47.5946 67.9914 47.1638C68.4864 46.7946 68.9813 46.4869 69.6 46.2408C70.2186 45.9946 70.7754 45.8715 71.3941 45.8715C72.0128 45.8715 72.5695 45.9946 73.1263 46.2408C73.6213 46.4869 74.1162 46.7331 74.4874 46.9792C74.8586 47.2869 75.1679 47.5331 75.3535 47.7792C75.601 48.0254 75.7247 48.21 75.7866 48.2715L75.0442 48.8869C74.6111 49.2561 74.1162 49.4408 73.5594 49.4408C73.0026 49.4408 73.1263 49.4408 72.8789 49.3177C72.6314 49.1946 72.384 49.1331 72.0746 48.9485C71.889 48.8254 71.6416 48.8254 71.3941 48.8254C70.961 48.8254 70.6517 48.8254 70.4042 49.01C70.1568 49.1331 69.9093 49.2561 69.7856 49.4408C69.6618 49.5638 69.5381 49.7485 69.4762 49.9331C69.4144 50.1177 69.3525 50.2408 69.3525 50.3638C69.3525 50.6715 69.4144 50.9177 69.6 51.1023C69.7237 51.2869 69.9712 51.4715 70.2186 51.5946C70.4661 51.7177 70.7136 51.8408 71.0229 51.9638C71.3322 52.0869 71.6416 52.21 72.0128 52.2715C72.6314 52.4561 73.2501 52.7023 73.8069 53.01C74.3637 53.2561 74.9205 53.6254 75.3535 53.9946C75.7866 54.3638 76.1578 54.8561 76.4671 55.41C76.7146 55.9638 76.9002 56.5792 76.9002 57.3792C76.9002 58.1792 76.7765 58.7331 76.4671 59.3485C76.2197 59.9638 75.7866 60.5177 75.3535 61.01C74.8586 61.5023 74.2399 61.8715 73.6213 62.1177C72.9407 62.4254 72.1984 62.5485 71.3941 62.5485C70.5898 62.5485 70.2805 62.4869 69.7237 62.3023C69.2288 62.1792 68.672 61.9331 68.2389 61.6254C67.744 61.3177 67.3728 61.01 66.9397 60.5792C66.5685 60.1485 66.2592 59.7177 66.0117 59.2254L66.816 58.7946H66.7541ZM76.7146 54.1792C76.7146 53.0715 76.9621 51.9638 77.3951 50.9792C77.8282 49.9331 78.4468 49.0715 79.1892 48.3331C79.9316 47.5946 80.8596 46.9792 81.8495 46.5485C82.8394 46.1177 83.953 45.8715 85.0665 45.8715C86.1801 45.8715 87.2937 46.1177 88.2836 46.5485C89.3353 46.9792 90.2014 47.5946 90.9438 48.3331C91.6862 49.0715 92.3049 49.9946 92.738 50.9792C93.171 51.9638 93.4185 53.0715 93.4185 54.1792C93.4185 55.2869 93.171 56.3946 92.738 57.3792C92.3049 58.3638 91.6862 59.2869 90.9438 60.0254C90.2014 60.7638 89.3353 61.3792 88.2836 61.81C87.2937 62.2408 86.1801 62.4869 85.0665 62.4869C83.953 62.4869 82.8394 62.3023 81.8495 61.81C80.8596 61.3792 79.9316 60.7638 79.1892 60.0254C78.4468 59.2869 77.8282 58.3638 77.3951 57.3792C76.9621 56.3331 76.7146 55.2869 76.7146 54.1792ZM79.746 54.1792C79.746 54.9177 79.8698 55.5946 80.1791 56.2715C80.4884 56.9485 80.8596 57.5023 81.3546 57.9946C81.8495 58.4869 82.4063 58.8561 83.0868 59.1638C83.7674 59.41 84.4479 59.5946 85.1903 59.5946C85.9327 59.5946 86.6132 59.4715 87.2937 59.1638C87.9743 58.8561 88.5311 58.4869 89.026 57.9946C89.5209 57.5023 89.8921 56.9485 90.1396 56.2715C90.4489 55.5946 90.5726 54.9177 90.5726 54.1792C90.5726 53.4408 90.4489 52.7638 90.1396 52.0869C89.8921 51.41 89.459 50.8561 89.026 50.3638C88.5311 49.8715 87.9743 49.5023 87.2937 49.2561C86.6132 48.9485 85.9327 48.8254 85.1903 48.8254C84.4479 48.8254 83.7674 48.9485 83.0868 49.2561C82.4063 49.5023 81.8495 49.9331 81.3546 50.3638C80.8596 50.8561 80.4884 51.41 80.1791 52.0869C79.9316 52.7638 79.746 53.4408 79.746 54.1792ZM95.027 62.2408V49.01H92.3049V47.3485C92.3049 46.4869 93.1092 46.0561 94.6558 46.0561H95.027V44.3946C95.027 43.7792 95.1508 43.1638 95.3364 42.6715C95.522 42.1177 95.8313 41.6869 96.1406 41.3177C96.5118 40.9485 96.9449 40.6408 97.4398 40.3946C97.9347 40.21 98.5534 40.0869 99.1721 40.0869C99.7907 40.0869 99.7907 40.0869 100.162 40.21C100.533 40.2715 100.904 40.3946 101.214 40.5177C101.585 40.6408 101.894 40.8254 102.204 41.01C102.513 41.1946 102.76 41.3792 102.946 41.5638L102.575 42.1177C102.389 42.4254 102.08 42.7331 101.77 42.9177C101.461 43.1023 101.09 43.2254 100.657 43.2254C100.224 43.2254 99.9145 43.2254 99.4814 43.0408C99.4814 43.0408 99.4195 43.0408 99.3577 43.0408C99.2958 43.0408 99.1721 43.0408 99.1102 43.0408C98.9246 43.0408 98.739 43.0408 98.6153 43.1638C98.4915 43.2254 98.3678 43.3485 98.2441 43.4715C98.1822 43.5946 98.0585 43.7792 97.9966 43.9023C97.9966 44.0869 97.9347 44.21 97.9347 44.3946V46.0561H102.142V48.9485H97.9347V62.1792H94.9033L95.027 62.2408ZM106.472 58.1792C106.472 58.3638 106.472 58.4869 106.534 58.6715C106.534 58.8561 106.658 58.9792 106.72 59.1638C106.843 59.2869 106.905 59.41 107.091 59.4715C107.215 59.5331 107.4 59.5946 107.586 59.5946H107.957C108.39 59.41 108.761 59.3485 109.133 59.3485C109.504 59.3485 109.937 59.4715 110.246 59.6561C110.555 59.9023 110.865 60.1485 111.05 60.4561L111.422 61.01C111.236 61.1946 110.989 61.3792 110.679 61.5638C110.37 61.7485 110.061 61.8715 109.689 62.0561C109.318 62.1792 109.009 62.3023 108.576 62.3638C108.205 62.4254 107.895 62.4869 107.586 62.4869C106.905 62.4869 106.349 62.3638 105.854 62.1792C105.359 61.9946 104.926 61.6869 104.554 61.3177C104.183 60.9485 103.936 60.5177 103.688 59.9638C103.503 59.41 103.379 58.8561 103.379 58.2408V49.0715H100.657V47.41C100.657 46.5485 101.461 46.1177 103.008 46.1177H103.379V42.7946C103.379 42.4869 103.379 42.1792 103.503 41.8715C103.565 41.5638 103.688 41.3177 103.75 41.1331C103.874 40.8869 103.998 40.6408 104.121 40.4561H106.472V46.1177H110.989V49.0715H106.472V58.2408V58.1792ZM123.547 52.8254C123.547 52.8254 122.124 55.9638 119.402 62.2408H116.433L109.38 46.1177H111.174C111.669 46.1177 112.102 46.2408 112.473 46.4869C112.906 46.7331 113.154 47.1023 113.339 47.5331L117.67 57.3792C117.732 57.5638 117.794 57.81 117.856 58.0561C117.856 58.3023 117.918 58.5485 117.979 58.8561C117.979 58.2408 118.103 57.7485 118.289 57.3792L122.619 47.4715C122.805 47.0408 123.114 46.6715 123.486 46.4254C123.919 46.1792 124.352 46.0561 124.785 46.0561H126.579L124.785 50.1177L128.002 57.3792C128.064 57.5638 128.125 57.81 128.187 57.9946C128.187 58.1792 128.249 58.4254 128.311 58.7331C128.311 58.1792 128.435 57.7485 128.62 57.3792L132.951 47.4715C133.137 47.0408 133.446 46.6715 133.817 46.4254C134.25 46.1792 134.683 46.0561 135.116 46.0561H136.911L129.858 62.2408H126.888L124.042 55.7177C123.733 54.9792 123.547 54.3638 123.547 53.7485C123.547 53.1331 123.547 53.1331 123.733 52.8254H123.547ZM136.539 48.4561C136.663 48.3331 136.787 48.1485 136.911 47.9638C137.034 47.8408 137.158 47.7177 137.405 47.5331C137.591 47.3485 137.777 47.2254 138.086 47.0408C138.705 46.6715 139.385 46.3638 140.066 46.1792C140.808 45.9946 141.55 45.8715 142.478 45.8715C143.406 45.8715 144.149 45.9946 144.829 46.1792C145.51 46.3638 146.067 46.6715 146.5 47.1023C146.995 47.4715 147.366 47.9023 147.613 48.4561C147.923 49.01 148.17 49.5638 148.294 50.1792C148.48 50.7946 148.603 51.4715 148.665 52.1485C148.727 52.8254 148.789 53.5023 148.789 54.1792V62.2408H146.252C146.129 62.0561 146.005 61.8715 145.881 61.6869C145.819 61.4408 145.757 61.1946 145.757 60.9485V60.5177C145.448 60.8254 145.139 61.0715 144.706 61.3177C144.273 61.5638 143.901 61.7485 143.406 61.9331C142.973 62.1177 142.54 62.2408 142.107 62.3023C141.674 62.4254 141.241 62.4254 140.932 62.4254C140.128 62.4254 139.385 62.3023 138.705 62.0561C138.024 61.81 137.467 61.5023 136.972 61.0715C136.477 60.6408 136.106 60.1485 135.859 59.5331C135.611 58.9177 135.488 58.2408 135.488 57.5023C135.488 56.7638 135.611 55.9638 135.921 55.3485C136.23 54.7331 136.663 54.1792 137.282 53.6869C137.9 53.1946 138.643 52.8869 139.633 52.6408C140.561 52.3946 141.674 52.2715 142.973 52.2715C144.273 52.2715 143.654 52.2715 143.963 52.2715C144.273 52.2715 144.582 52.2715 144.829 52.2715C145.077 52.2715 145.324 52.2715 145.448 52.2715C145.634 52.2715 145.757 52.2715 145.757 52.2715C145.757 51.5331 145.572 50.9177 145.386 50.3638C145.201 49.8715 144.953 49.5023 144.644 49.1946C144.334 48.8869 144.025 48.7023 143.654 48.6408C143.283 48.5177 142.85 48.4561 142.478 48.4561C142.107 48.4561 141.55 48.4561 141.303 48.5792C140.994 48.6408 140.746 48.7638 140.561 48.8869C140.375 49.01 140.128 49.0715 139.88 49.1946C139.695 49.2561 139.385 49.3177 139.014 49.3177C138.643 49.3177 138.457 49.3177 138.21 49.1946C137.962 49.0715 137.715 48.9485 137.467 48.7638L136.601 48.1485L136.539 48.4561ZM140.87 59.5331C141.241 59.5331 141.612 59.5331 142.045 59.41C142.478 59.3485 142.85 59.2254 143.283 59.1023C143.716 58.9792 144.149 58.7946 144.52 58.61C144.953 58.4254 145.324 58.2408 145.696 57.9946V55.2869C145.696 55.2869 145.572 55.2869 145.386 55.2869C145.201 55.2869 145.015 55.2869 144.706 55.2869C144.458 55.2869 144.149 55.2869 143.84 55.2869C143.53 55.2869 143.159 55.2869 142.85 55.2869C142.231 55.2869 141.612 55.2869 141.056 55.41C140.499 55.4715 140.004 55.5946 139.633 55.8408C139.2 56.0254 138.89 56.2715 138.643 56.5792C138.395 56.8869 138.272 57.1946 138.272 57.6254C138.272 58.0561 138.333 58.3023 138.457 58.5485C138.581 58.7946 138.767 58.9792 139.014 59.1638C139.261 59.3485 139.509 59.41 139.818 59.4715C140.128 59.5331 140.437 59.5946 140.808 59.5946L140.87 59.5331ZM152.996 46.0561C152.996 46.0561 152.996 46.0561 153.058 46.1792C153.058 46.1792 153.181 46.3023 153.181 46.4254C153.181 46.5485 153.305 46.6715 153.367 46.8561C153.367 46.9792 153.429 47.1638 153.429 47.3485V48.4561C153.614 48.0869 153.862 47.7177 154.171 47.41C154.481 47.1023 154.852 46.7946 155.285 46.61C155.718 46.3638 156.151 46.1792 156.584 46.0561C157.079 45.9331 157.574 45.8715 158.069 45.8715C158.873 45.8715 159.677 45.9946 160.42 46.3023L160.172 47.5946C160.11 48.0254 159.925 48.3331 159.615 48.6408C159.306 48.8869 158.997 49.01 158.564 49.01H158.502C158.502 49.01 158.502 49.01 158.44 49.01H158.316C158.316 49.01 158.193 49.01 158.069 49.01C157.45 49.01 156.831 49.1331 156.275 49.2561C155.718 49.4408 155.223 49.6869 154.79 49.9331C154.357 50.2408 154.047 50.5485 153.8 50.9177C153.553 51.2869 153.429 51.6561 153.367 52.0254V62.3023H150.336V46.1792H152.934L152.996 46.0561ZM175.02 52.7638C175.02 53.1331 174.958 53.4408 174.773 53.7485C174.649 54.0561 174.463 54.2408 174.278 54.4869C174.092 54.6715 173.845 54.8561 173.597 54.9792C173.35 55.1023 173.102 55.1023 172.917 55.1023H161.657C161.719 55.7177 161.966 56.3331 162.276 56.8254C162.585 57.3792 163.018 57.81 163.451 58.2408C163.946 58.61 164.441 58.9177 165.06 59.1638C165.678 59.41 166.297 59.5331 166.916 59.5331C167.534 59.5331 167.844 59.5331 168.277 59.3485C168.71 59.2254 169.143 59.0408 169.514 58.8561C169.7 58.7331 169.947 58.6715 170.133 58.61C170.318 58.61 170.566 58.5485 170.751 58.5485C170.937 58.5485 171.37 58.5485 171.679 58.7331C171.927 58.8561 172.174 59.0408 172.422 59.2869L173.04 59.9023C172.298 60.7023 171.37 61.3792 170.318 61.8715C169.267 62.3638 168.153 62.61 166.916 62.61C165.678 62.61 164.688 62.4254 163.699 61.9331C162.709 61.5023 161.781 60.8869 161.038 60.1485C160.296 59.41 159.677 58.4869 159.244 57.5023C158.811 56.4561 158.626 55.41 158.626 54.3023C158.626 53.1946 158.873 52.0869 159.244 51.1023C159.677 50.0561 160.296 49.1946 161.038 48.4561C161.781 47.7177 162.709 47.1023 163.699 46.6715C164.688 46.2408 165.802 45.9946 166.916 45.9946C168.029 45.9946 168.772 46.1792 169.7 46.4869C170.566 46.7946 171.37 47.2254 172.051 47.7792C172.793 48.3331 173.35 49.01 173.907 49.7485C174.402 50.4869 174.773 51.3485 175.02 52.21C175.02 52.3331 175.02 52.4561 175.02 52.5792C175.02 52.7023 175.02 52.8254 175.02 52.9485V52.7638ZM162.709 52.1485H171.803C171.618 51.6561 171.308 51.2254 170.999 50.8561C170.69 50.4254 170.318 50.1177 169.823 49.81C169.39 49.5023 168.957 49.2561 168.4 49.1331C167.906 48.9485 167.349 48.8869 166.792 48.8869C166.235 48.8869 165.616 49.01 165.06 49.1946C164.503 49.3792 164.008 49.6254 163.575 49.9946C163.142 50.3638 162.771 50.7331 162.399 51.2254C162.09 51.7177 161.843 52.21 161.657 52.7638C161.719 52.6408 161.843 52.5177 162.028 52.3946C162.214 52.2715 162.399 52.21 162.647 52.21L162.709 52.1485Z" fill="url(#paint0_linear_275_746)"/>
<path d="M7.48605 35.754H3.83594V9.2925H14.2913C15.3431 9.2925 16.2711 9.47711 17.1991 9.90788C18.1271 10.2771 18.9313 10.831 19.55 11.5079C20.2305 12.1848 20.7873 12.9848 21.1585 13.8463C21.5297 14.7694 21.7772 15.6925 21.7772 16.7386C21.7772 17.7848 21.7153 17.9079 21.5297 18.5233C21.3441 19.1386 21.0966 19.6925 20.8492 20.1848C20.5398 20.6771 20.2305 21.1079 19.8593 21.4771C19.4881 21.7848 19.1169 21.9694 18.7457 22.031C18.8076 22.031 18.9313 22.031 19.1169 22.031C19.2407 22.031 19.4262 22.031 19.6118 22.154C19.7974 22.154 19.983 22.2771 20.1068 22.3386C20.2924 22.4002 20.4161 22.5233 20.6017 22.6463C21.3441 23.3233 21.9628 24.1848 22.4577 25.1079C22.9526 26.031 23.2001 27.0771 23.2001 28.1848C23.2001 29.2925 23.0145 30.2156 22.5814 31.1386C22.2102 32.0617 21.6534 32.8617 20.9729 33.5386C20.2924 34.2156 19.4881 34.7694 18.5601 35.1386C17.6321 35.5079 16.6423 35.754 15.5905 35.754H7.73352H7.48605ZM15.3431 32.0617C15.8999 32.0617 16.3948 31.9386 16.8897 31.754C17.3847 31.5694 17.8177 31.2617 18.1271 30.8925C18.4983 30.5233 18.7457 30.0925 18.9932 29.6002C19.2407 29.1079 19.3025 28.6156 19.3025 28.0617C19.3025 27.5079 19.1788 27.0156 18.9932 26.5233C18.8076 26.031 18.4983 25.6002 18.1271 25.2925C17.7559 24.9233 17.3228 24.6771 16.8897 24.431C16.3948 24.2463 15.8999 24.1233 15.3431 24.1233H7.48605V32.0617H15.3431ZM7.48605 12.9233V20.4925H14.2295C14.7244 20.4925 15.2193 20.3694 15.7143 20.1848C16.2092 20.0002 16.5804 19.6925 16.9516 19.3848C17.3228 19.0771 17.5703 18.6463 17.7559 18.154C17.9415 17.6617 18.0652 17.231 18.0652 16.6771C18.0652 16.1233 17.9415 15.6925 17.7559 15.2002C17.5703 14.7079 17.2609 14.3386 16.9516 13.9694C16.6423 13.6002 16.2092 13.354 15.7143 13.1694C15.2812 12.9848 14.7863 12.8617 14.2295 12.8617H7.48605V12.9233ZM39.2853 35.754H35.6352V24.554C35.6352 24.3079 35.6352 24.0617 35.5734 23.8156C35.5734 23.631 35.4496 23.3848 35.3259 23.2002C35.264 23.0156 35.1403 22.831 35.0166 22.5848C34.8928 22.3386 34.7072 22.154 34.5216 21.9694L25.0561 9.23096H27.5926C28.335 9.23096 28.9537 9.35403 29.5105 9.66173C30.0673 9.90788 30.5003 10.3386 30.8715 10.8925L37.1819 19.3233C37.2437 19.4463 37.3056 19.631 37.3675 19.8156C37.3675 20.0002 37.4293 20.1233 37.4912 20.2463C37.4912 20.1233 37.4912 20.0002 37.5531 19.8156C37.5531 19.631 37.6768 19.4463 37.8005 19.3233L44.1109 10.8925C44.4821 10.3386 44.9152 9.90788 45.472 9.66173C46.0288 9.35403 46.6474 9.23096 47.3898 9.23096H49.9263L40.4608 21.9694C40.2752 22.2156 40.1515 22.4002 39.9659 22.5848C39.7803 22.7694 39.7184 22.954 39.5947 23.2002C39.5328 23.3848 39.4709 23.5694 39.4091 23.8156C39.4091 24.0002 39.3472 24.2463 39.3472 24.554V35.754H39.2853ZM50.3594 12.9233V9.23096H70.5897V12.9233H62.3615V35.6925H58.7114V12.9233H50.4213H50.3594ZM90.7581 35.754H74.3017V9.2925H90.7581V12.9233H78.0137V20.554H88.3453V24.1848H78.0137V32.0617H90.7581V35.6925V35.754ZM111.731 24.431C111.731 24.431 110.06 28.2463 106.782 35.754H103.193L91.5624 9.2925H93.6658C94.2226 9.2925 94.7794 9.41557 95.2744 9.7848C95.7693 10.154 96.1405 10.5233 96.3261 11.0156L104.616 29.9694C104.802 30.4617 104.926 31.0156 104.926 31.5694C104.926 30.954 105.049 30.4002 105.297 29.9694L113.587 11.0156C113.834 10.5233 114.144 10.0925 114.639 9.7848C115.133 9.47711 115.628 9.2925 116.247 9.2925H118.35L113.154 21.231L116.989 29.9694C117.113 30.2156 117.175 30.4617 117.237 30.7694C117.237 31.0156 117.299 31.3233 117.361 31.631C117.361 30.954 117.484 30.4002 117.732 29.9694L126.022 11.0156C126.269 10.5233 126.579 10.0925 127.074 9.7848C127.569 9.47711 128.064 9.2925 128.682 9.2925H130.786L119.155 35.754H115.567L112.164 27.8771C111.793 27.0156 111.607 26.2156 111.607 25.5386C111.607 24.8617 111.669 24.8002 111.793 24.431H111.731ZM149.346 35.754H132.889V9.2925H149.346V12.9233H136.601V20.554H146.933V24.1848H136.601V32.0617H149.346V35.6925V35.754ZM158.131 35.754H154.48V9.2925H164.936C165.988 9.2925 166.916 9.47711 167.844 9.90788C168.772 10.2771 169.576 10.831 170.194 11.5079C170.875 12.1848 171.432 12.9848 171.803 13.8463C172.174 14.7694 172.422 15.6925 172.422 16.7386C172.422 17.7848 172.36 17.9079 172.174 18.5233C171.989 19.1386 171.803 19.6925 171.494 20.1848C171.184 20.6771 170.875 21.1079 170.504 21.4771C170.133 21.7848 169.761 21.9694 169.39 22.031C169.452 22.031 169.576 22.031 169.761 22.031C169.885 22.031 170.071 22.031 170.256 22.154C170.442 22.154 170.566 22.2771 170.751 22.3386C170.937 22.4002 171.061 22.5233 171.246 22.6463C171.989 23.3233 172.607 24.1848 173.102 25.1079C173.597 26.031 173.845 27.0771 173.845 28.1848C173.845 29.2925 173.659 30.2156 173.226 31.1386C172.855 32.0617 172.298 32.8617 171.617 33.5386C170.937 34.2156 170.133 34.7694 169.205 35.1386C168.277 35.5079 167.287 35.754 166.235 35.754H158.378H158.131ZM165.988 32.0617C166.544 32.0617 167.039 31.9386 167.534 31.754C168.029 31.5694 168.462 31.2617 168.772 30.8925C169.143 30.5233 169.39 30.0925 169.638 29.6002C169.885 29.1079 169.947 28.6156 169.947 28.0617C169.947 27.5079 169.823 27.0156 169.638 26.5233C169.452 26.031 169.143 25.6002 168.772 25.2925C168.4 24.9233 167.967 24.6771 167.534 24.431C167.039 24.2463 166.544 24.1233 165.988 24.1233H158.131V32.0617H165.988ZM158.131 12.9233V20.4925H164.936C165.431 20.4925 165.926 20.3694 166.421 20.1848C166.916 20.0002 167.287 19.6925 167.658 19.3848C168.029 19.0156 168.277 18.6463 168.462 18.154C168.648 17.7233 168.772 17.231 168.772 16.6771C168.772 16.1233 168.648 15.6925 168.462 15.2002C168.277 14.7079 167.967 14.3386 167.658 13.9694C167.287 13.6002 166.916 13.354 166.421 13.1694C165.988 12.9848 165.493 12.8617 164.936 12.8617H158.131V12.9233Z" fill="white"/>
<defs>
<linearGradient id="paint0_linear_275_746" x1="64.96" y1="51.2869" x2="176.319" y2="51.2869" gradientUnits="userSpaceOnUse">
<stop stop-color="#0077B5"/>
<stop offset="1" stop-color="#9B4F96"/>
</linearGradient>
</defs>
</svg>
