<svg width="86" height="85" viewBox="0 0 86 85" fill="none" xmlns="http://www.w3.org/2000/svg">
<g clip-path="url(#clip0_553_1621)">
<g clip-path="url(#clip1_553_1621)">
<path d="M85.5 0H0.5V85H85.5V0Z" fill="#E3F0FF"/>
<path opacity="0.3" d="M47.9013 66.8567H38.3333C38.1158 66.8567 37.9018 66.9124 37.7118 67.0184C37.5219 67.1243 37.3621 67.2771 37.2478 67.4623C37.1336 67.6474 37.0685 67.8586 37.0589 68.076C37.0492 68.2933 37.0953 68.5095 37.1928 68.704L38.0501 70.416C38.471 71.2643 39.1208 71.978 39.9261 72.4762C40.7314 72.9744 41.6601 73.2374 42.607 73.2354H43.6276C44.5736 73.2388 45.5018 72.9778 46.3074 72.4819C47.113 71.986 47.764 71.2749 48.1871 70.4288L49.0444 68.7167C49.142 68.5221 49.1881 68.3056 49.1783 68.0881C49.1686 67.8705 49.1033 67.6591 48.9887 67.4739C48.8741 67.2887 48.714 67.136 48.5237 67.0302C48.3334 66.9244 48.1191 66.869 47.9013 66.8695V66.8567Z" fill="#1C1C3C"/>
<path opacity="0.3" d="M43.1179 23.4816C43.7946 23.4816 44.4436 23.2128 44.922 22.7343C45.4005 22.2558 45.6694 21.6069 45.6694 20.9302V14.5515C45.6694 13.8748 45.4005 13.2258 44.922 12.7473C44.4436 12.2688 43.7946 12 43.1179 12C42.4412 12 41.7922 12.2688 41.3137 12.7473C40.8352 13.2258 40.5664 13.8748 40.5664 14.5515V20.9302C40.5664 21.6069 40.8352 22.2558 41.3137 22.7343C41.7922 23.2128 42.4412 23.4816 43.1179 23.4816Z" fill="#1C1C3C"/>
<path opacity="0.3" d="M66.57 21.7161C66.0915 21.2378 65.4426 20.969 64.7661 20.969C64.0895 20.969 63.4407 21.2378 62.9622 21.7161L58.4537 26.2271C58.21 26.4625 58.0157 26.744 57.8819 27.0553C57.7482 27.3666 57.6778 27.7014 57.6749 28.0402C57.672 28.3789 57.7365 28.7149 57.8648 29.0285C57.9931 29.3421 58.1826 29.6269 58.4221 29.8665C58.6617 30.1061 58.9466 30.2955 59.2601 30.4238C59.5737 30.5521 59.9097 30.6167 60.2484 30.6137C60.5872 30.6108 60.922 30.5404 61.2333 30.4067C61.5446 30.2729 61.8262 30.0786 62.0615 29.8349L66.57 25.3239C67.0483 24.8454 67.317 24.1965 67.317 23.52C67.317 22.8434 67.0483 22.1946 66.57 21.7161Z" fill="#1C1C3C"/>
<path opacity="0.3" d="M71.1837 42.6177H66.0808C65.4041 42.6177 64.7551 42.8865 64.2766 43.365C63.7981 43.8435 63.5293 44.4925 63.5293 45.1692C63.5293 45.8459 63.7981 46.4949 64.2766 46.9733C64.7551 47.4518 65.4041 47.7207 66.0808 47.7207H71.1837C71.8604 47.7207 72.5094 47.4518 72.9879 46.9733C73.4664 46.4949 73.7352 45.8459 73.7352 45.1692C73.7352 44.4925 73.4664 43.8435 72.9879 43.365C72.5094 42.8865 71.8604 42.6177 71.1837 42.6177Z" fill="#1C1C3C"/>
<path opacity="0.3" d="M27.7833 26.227L23.2723 21.716C22.791 21.2512 22.1465 20.9941 21.4775 20.9999C20.8086 21.0057 20.1686 21.274 19.6956 21.7471C19.2225 22.2202 18.9542 22.8601 18.9483 23.5291C18.9425 24.1981 19.1997 24.8426 19.6645 25.3238L24.1755 29.8348C24.6567 30.2996 25.3012 30.5568 25.9702 30.5509C26.6392 30.5451 27.2791 30.2768 27.7522 29.8037C28.2252 29.3307 28.4936 28.6907 28.4994 28.0217C28.5052 27.3527 28.248 26.7082 27.7833 26.227Z" fill="#1C1C3C"/>
<path opacity="0.3" d="M20.1544 42.6177H15.0515C14.3748 42.6177 13.7258 42.8865 13.2473 43.365C12.7688 43.8435 12.5 44.4925 12.5 45.1692C12.5 45.8459 12.7688 46.4949 13.2473 46.9733C13.7258 47.4518 14.3748 47.7207 15.0515 47.7207H20.1544C20.8311 47.7207 21.4801 47.4518 21.9586 46.9733C22.4371 46.4949 22.7059 45.8459 22.7059 45.1692C22.7059 44.4925 22.4371 43.8435 21.9586 43.365C21.4801 42.8865 20.8311 42.6177 20.1544 42.6177Z" fill="#1C1C3C"/>
<path d="M43.1176 27.3088C39.5917 27.3141 36.1592 28.4429 33.3184 30.5314C30.4777 32.62 28.3765 35.5595 27.3198 38.9234C26.2632 42.2873 26.3061 45.9003 27.4424 49.2381C28.5787 52.5759 30.7492 55.4647 33.6389 57.4851C33.8082 57.6026 33.9466 57.7593 34.0421 57.942C34.1376 58.1246 34.1875 58.3277 34.1874 58.5338V60.478C34.1874 61.1547 34.4562 61.8037 34.9347 62.2822C35.4132 62.7606 36.0622 63.0295 36.7389 63.0295H49.4963C50.173 63.0295 50.8219 62.7606 51.3004 62.2822C51.7789 61.8037 52.0477 61.1547 52.0477 60.478V58.5312C52.0477 58.3251 52.0975 58.1221 52.1931 57.9394C52.2886 57.7568 52.427 57.6 52.5963 57.4826C55.4932 55.4664 57.6708 52.578 58.8118 49.2381C59.9528 45.8982 59.9977 42.2813 58.94 38.9141C57.8822 35.5469 55.777 32.6054 52.9311 30.5179C50.0851 28.4305 46.647 27.3062 43.1176 27.3088Z" fill="#1C1C3C"/>
</g>
</g>
<defs>
<clipPath id="clip0_553_1621">
<rect x="0.5" width="85" height="85" rx="16" fill="white"/>
</clipPath>
<clipPath id="clip1_553_1621">
<rect width="85" height="85" fill="white" transform="translate(0.5)"/>
</clipPath>
</defs>
</svg>
