<svg width="1113" height="951" viewBox="0 0 1113 951" fill="none" xmlns="http://www.w3.org/2000/svg">
<g clip-path="url(#clip0_58_37)">
<g clip-path="url(#clip1_58_37)">
<g clip-path="url(#clip2_58_37)">
<path d="M84.2432 781.517V891.409C84.2432 910.951 100.086 926.793 119.628 926.793H359.255C378.797 926.793 394.64 910.951 394.64 891.409V858.146" stroke="#CECDDD" stroke-width="3.53849" stroke-linecap="round" stroke-dasharray="12.39 12.39"/>
<g filter="url(#filter0_d_58_37)">
<path d="M143.897 937.879C150.019 937.879 154.982 932.918 154.982 926.793C154.982 920.671 150.019 915.707 143.897 915.707C137.774 915.707 132.811 920.671 132.811 926.793C132.811 932.918 137.774 937.879 143.897 937.879Z" fill="#302CFF" fill-opacity="0.01"/>
</g>
<path d="M143.897 937.879C150.019 937.879 154.982 932.918 154.982 926.793C154.982 920.671 150.019 915.707 143.897 915.707C137.774 915.707 132.811 920.671 132.811 926.793C132.811 932.918 137.774 937.879 143.897 937.879Z" fill="url(#paint0_linear_58_37)"/>
<path d="M739.632 445.553V304.49C739.632 284.947 755.475 269.105 775.017 269.105H877.37" stroke="#CECDDD" stroke-width="3.53849" stroke-linecap="round" stroke-dasharray="12.39 12.39"/>
<path d="M173.006 555.658V504.377C173.006 484.834 188.848 468.992 208.39 468.992H347.425" stroke="#CECDDD" stroke-width="3.53849" stroke-linecap="round" stroke-dasharray="12.39 12.39"/>
<path opacity="0.05" d="M702.136 400.208L684.773 394.05C682.286 393.165 680.014 391.77 678.102 389.952C676.189 388.134 674.68 385.934 673.671 383.496C672.663 381.057 672.177 378.435 672.248 375.796C672.317 373.159 672.939 370.565 674.076 368.183L681.975 351.547C684.857 345.472 685.789 338.654 684.643 332.028C683.497 325.403 680.33 319.294 675.575 314.54C670.82 309.785 664.711 306.617 658.086 305.472C651.46 304.326 644.643 305.258 638.568 308.139L621.932 316.053C619.548 317.184 616.954 317.802 614.317 317.867C611.68 317.932 609.059 317.444 606.623 316.434C604.187 315.423 601.989 313.912 600.173 311.999C598.357 310.086 596.962 307.814 596.079 305.328L589.907 287.979C587.649 281.645 583.487 276.165 577.991 272.291C572.497 268.416 565.938 266.336 559.213 266.336C552.489 266.336 545.93 268.416 540.435 272.291C534.939 276.165 530.778 281.645 528.519 287.979L522.348 305.342C521.463 307.826 520.067 310.097 518.251 312.009C516.434 313.92 514.236 315.43 511.8 316.438C509.364 317.448 506.743 317.935 504.107 317.868C501.47 317.803 498.877 317.184 496.495 316.053L479.859 308.139C473.784 305.258 466.966 304.326 460.341 305.472C453.715 306.617 447.606 309.785 442.851 314.54C438.097 319.294 434.93 325.403 433.783 332.028C432.638 338.654 433.57 345.472 436.451 351.547L444.351 368.183C445.484 370.566 446.106 373.159 446.174 375.796C446.243 378.433 445.757 381.055 444.749 383.493C443.741 385.931 442.232 388.13 440.321 389.948C438.41 391.767 436.138 393.164 433.653 394.05L416.29 400.221C409.956 402.476 404.474 406.636 400.597 412.13C396.721 417.625 394.64 424.184 394.64 430.908C394.64 437.633 396.721 444.192 400.597 449.686C404.474 455.18 409.956 459.341 416.29 461.595L433.653 467.767C436.138 468.651 438.409 470.047 440.32 471.864C442.232 473.681 443.74 475.879 444.748 478.316C445.757 480.753 446.243 483.374 446.173 486.01C446.105 488.646 445.484 491.239 444.351 493.619L436.451 510.256C433.57 516.331 432.638 523.149 433.783 529.774C434.93 536.4 438.097 542.509 442.851 547.263C447.606 552.017 453.715 555.185 460.341 556.331C466.966 557.476 473.784 556.545 479.859 553.664L496.495 545.763C498.877 544.628 501.47 544.006 504.108 543.938C506.745 543.869 509.368 544.355 511.806 545.365C514.243 546.375 516.44 547.886 518.257 549.8C520.073 551.714 521.467 553.988 522.348 556.475L528.519 573.825C530.778 580.157 534.939 585.637 540.435 589.513C545.93 593.387 552.489 595.467 559.213 595.467C565.938 595.467 572.497 593.387 577.991 589.513C583.487 585.637 587.649 580.157 589.907 573.825L596.079 556.461C596.963 553.977 598.358 551.705 600.175 549.794C601.993 547.883 604.19 546.375 606.627 545.366C609.064 544.358 611.685 543.872 614.322 543.941C616.958 544.009 619.55 544.63 621.932 545.763L638.568 553.664C644.643 556.545 651.46 557.476 658.086 556.331C664.711 555.185 670.82 552.017 675.575 547.263C680.33 542.509 683.497 536.4 684.643 529.774C685.789 523.149 684.857 516.331 681.975 510.256L674.076 493.619C672.942 491.239 672.321 488.646 672.253 486.01C672.184 483.374 672.67 480.753 673.678 478.316C674.686 475.879 676.195 473.681 678.106 471.864C680.018 470.047 682.288 468.651 684.773 467.767L702.136 461.581C708.471 459.327 713.953 455.167 717.83 449.672C721.706 444.178 723.786 437.619 723.786 430.894C723.786 424.17 721.706 417.611 717.83 412.116C713.953 406.622 708.471 402.463 702.136 400.208ZM559.213 496.514C546.26 496.325 533.632 492.42 522.835 485.262C512.037 478.104 503.523 467.995 498.305 456.137C491.635 439.983 491.642 421.842 498.327 405.693C505.011 389.545 517.827 376.706 533.964 369.994C550.137 363.525 568.197 363.634 584.291 370.297C600.384 376.958 613.238 389.646 620.107 405.652C626.779 421.806 626.771 439.947 620.086 456.096C613.401 472.245 600.586 485.083 584.449 491.796C576.45 495.086 567.86 496.691 559.213 496.514Z" fill="url(#paint1_linear_58_37)"/>
<path d="M863.204 530.365H1039.05C1058.6 530.365 1074.44 546.208 1074.44 565.75V701.532C1074.44 721.075 1058.6 736.917 1039.05 736.917H911.671" stroke="#CECDDD" stroke-width="3.53849" stroke-linecap="round" stroke-dasharray="12.39 12.39"/>
<g filter="url(#filter1_ddd_58_37)">
<path d="M865.114 432.163H337.835C327.637 432.163 319.37 440.43 319.37 450.628V862.75C319.37 872.947 327.637 881.214 337.835 881.214H865.114C875.311 881.214 883.578 872.947 883.578 862.75V450.628C883.578 440.43 875.311 432.163 865.114 432.163Z" fill="white" fill-opacity="0.01"/>
</g>
<path d="M865.114 432.163H337.835C327.637 432.163 319.37 440.43 319.37 450.628V862.75C319.37 872.947 327.637 881.214 337.835 881.214H865.114C875.311 881.214 883.578 872.947 883.578 862.75V450.628C883.578 440.43 875.311 432.163 865.114 432.163Z" fill="white"/>
<path d="M488.017 737.177H357.798C349.3 737.177 342.41 744.067 342.41 752.565V845.973C342.41 854.471 349.3 861.361 357.798 861.361H488.017C496.515 861.361 503.404 854.471 503.404 845.973V752.565C503.404 744.067 496.515 737.177 488.017 737.177Z" fill="#F6F6FB"/>
<path opacity="0.4" d="M465.019 825.834H380.797C376.97 825.834 373.868 828.936 373.868 832.762C373.868 836.588 376.97 839.691 380.797 839.691H465.019C468.845 839.691 471.947 836.588 471.947 832.762C471.947 828.936 468.845 825.834 465.019 825.834Z" fill="#A0A0C7"/>
<path d="M666.596 737.177H536.378C527.88 737.177 520.991 744.067 520.991 752.565V845.973C520.991 854.471 527.88 861.361 536.378 861.361H666.596C675.094 861.361 681.984 854.471 681.984 845.973V752.565C681.984 744.067 675.094 737.177 666.596 737.177Z" fill="#F6F6FB"/>
<path d="M845.177 737.177H714.958C706.46 737.177 699.571 744.067 699.571 752.565V845.973C699.571 854.471 706.46 861.361 714.958 861.361H845.177C853.675 861.361 860.565 854.471 860.565 845.973V752.565C860.565 744.067 853.675 737.177 845.177 737.177Z" fill="#F6F6FB"/>
<g filter="url(#filter2_d_58_37)">
<path d="M780.068 815.876C797.597 815.876 811.807 801.666 811.807 784.137C811.807 766.608 797.597 752.398 780.068 752.398C762.538 752.398 748.329 766.608 748.329 784.137C748.329 801.666 762.538 815.876 780.068 815.876Z" fill="#302CFF" fill-opacity="0.01"/>
</g>
<path d="M780.068 815.876C797.597 815.876 811.807 801.666 811.807 784.137C811.807 766.608 797.597 752.398 780.068 752.398C762.538 752.398 748.329 766.608 748.329 784.137C748.329 801.666 762.538 815.876 780.068 815.876Z" fill="url(#paint2_linear_58_37)"/>
<path d="M845.175 485.32H357.773C349.275 485.32 342.385 492.21 342.385 500.708V706.933C342.385 715.431 349.275 722.321 357.773 722.321H845.175C853.674 722.321 860.563 715.431 860.563 706.933V500.708C860.563 492.21 853.674 485.32 845.175 485.32Z" fill="#F6F6FB"/>
<path opacity="0.8" d="M523.283 537.058H378.438C373.847 537.058 370.124 540.78 370.124 545.373C370.124 549.965 373.847 553.687 378.438 553.687H523.283C527.875 553.687 531.597 549.965 531.597 545.373C531.597 540.78 527.875 537.058 523.283 537.058Z" fill="#50507E"/>
<path opacity="0.2" d="M490.825 567.211H377.053C373.226 567.211 370.124 570.313 370.124 574.14C370.124 577.966 373.226 581.068 377.053 581.068H490.825C494.651 581.068 497.753 577.966 497.753 574.14C497.753 570.313 494.651 567.211 490.825 567.211Z" fill="#A0A0C7"/>
<path opacity="0.2" d="M544.783 589.382H377.053C373.226 589.382 370.124 592.485 370.124 596.311C370.124 600.137 373.226 603.239 377.053 603.239H544.783C548.61 603.239 551.712 600.137 551.712 596.311C551.712 592.485 548.61 589.382 544.783 589.382Z" fill="#A0A0C7"/>
<path opacity="0.2" d="M520.971 611.554H377.053C373.226 611.554 370.124 614.656 370.124 618.482C370.124 622.308 373.226 625.411 377.053 625.411H520.971C524.799 625.411 527.9 622.308 527.9 618.482C527.9 614.656 524.799 611.554 520.971 611.554Z" fill="#A0A0C7"/>
<g filter="url(#filter3_d_58_37)">
<path d="M438.851 642.241H382.133C375.501 642.241 370.124 647.618 370.124 654.251C370.124 660.884 375.501 666.26 382.133 666.26H438.851C445.484 666.26 450.86 660.884 450.86 654.251C450.86 647.618 445.484 642.241 438.851 642.241Z" fill="#302CFF" fill-opacity="0.01"/>
</g>
<path d="M438.851 642.241H382.133C375.501 642.241 370.124 647.618 370.124 654.251C370.124 660.884 375.501 666.26 382.133 666.26H438.851C445.484 666.26 450.86 660.884 450.86 654.251C450.86 647.618 445.484 642.241 438.851 642.241Z" fill="url(#paint3_linear_58_37)"/>
<path d="M814.374 514.614H604.699C594.496 514.614 586.223 522.885 586.223 533.09V670.229C586.223 680.433 594.496 688.705 604.699 688.705H814.374C824.578 688.705 832.85 680.433 832.85 670.229V533.09C832.85 522.885 824.578 514.614 814.374 514.614Z" fill="url(#paint4_linear_58_37)"/>
<g filter="url(#filter4_d_58_37)">
<path d="M350.652 466.14C355.217 466.14 358.917 462.44 358.917 457.876C358.917 453.311 355.217 449.612 350.652 449.612C346.088 449.612 342.387 453.311 342.387 457.876C342.387 462.44 346.088 466.14 350.652 466.14Z" fill="#FF3C3C" fill-opacity="0.01"/>
</g>
<path d="M350.652 466.14C355.217 466.14 358.917 462.44 358.917 457.876C358.917 453.311 355.217 449.612 350.652 449.612C346.088 449.612 342.387 453.311 342.387 457.876C342.387 462.44 346.088 466.14 350.652 466.14Z" fill="#FF3C3C"/>
<g filter="url(#filter5_d_58_37)">
<path d="M374.526 466.14C379.091 466.14 382.791 462.44 382.791 457.876C382.791 453.311 379.091 449.612 374.526 449.612C369.962 449.612 366.262 453.311 366.262 457.876C366.262 462.44 369.962 466.14 374.526 466.14Z" fill="#FFDD2C" fill-opacity="0.01"/>
</g>
<path d="M374.526 466.14C379.091 466.14 382.791 462.44 382.791 457.876C382.791 453.311 379.091 449.612 374.526 449.612C369.962 449.612 366.262 453.311 366.262 457.876C366.262 462.44 369.962 466.14 374.526 466.14Z" fill="#FFDD2C"/>
<g filter="url(#filter6_d_58_37)">
<path d="M399.321 466.14C403.885 466.14 407.586 462.44 407.586 457.876C407.586 453.311 403.885 449.612 399.321 449.612C394.756 449.612 391.057 453.311 391.057 457.876C391.057 462.44 394.756 466.14 399.321 466.14Z" fill="#5AD86E" fill-opacity="0.01"/>
</g>
<path d="M399.321 466.14C403.885 466.14 407.586 462.44 407.586 457.876C407.586 453.311 403.885 449.612 399.321 449.612C394.756 449.612 391.057 453.311 391.057 457.876C391.057 462.44 394.756 466.14 399.321 466.14Z" fill="#5AD86E"/>
<path opacity="0.4" d="M651.318 825.834H551.657C547.83 825.834 544.728 828.936 544.728 832.762C544.728 836.588 547.83 839.691 551.657 839.691H651.318C655.144 839.691 658.246 836.588 658.246 832.762C658.246 828.936 655.144 825.834 651.318 825.834Z" fill="#A0A0C7"/>
<path opacity="0.4" d="M822.177 825.834H737.955C734.129 825.834 731.027 828.936 731.027 832.762C731.027 836.588 734.129 839.691 737.955 839.691H822.177C826.004 839.691 829.106 836.588 829.106 832.762C829.106 828.936 826.004 825.834 822.177 825.834Z" fill="#A0A0C7"/>
<g filter="url(#filter7_dd_58_37)">
<path d="M954.451 647.727H724.247C714.043 647.727 705.771 655.999 705.771 666.203V821.214C705.771 831.418 714.043 839.69 724.247 839.69H954.451C964.659 839.69 972.927 831.418 972.927 821.214V666.203C972.927 655.999 964.659 647.727 954.451 647.727Z" fill="white" fill-opacity="0.01"/>
</g>
<path d="M954.451 647.727H724.247C714.043 647.727 705.771 655.999 705.771 666.203V821.214C705.771 831.418 714.043 839.69 724.247 839.69H954.451C964.659 839.69 972.927 831.418 972.927 821.214V666.203C972.927 655.999 964.659 647.727 954.451 647.727Z" fill="white"/>
<g filter="url(#filter8_d_58_37)">
<path d="M732.309 675.151C735.241 675.151 737.617 672.774 737.617 669.843C737.617 666.911 735.241 664.534 732.309 664.534C729.378 664.534 727.002 666.911 727.002 669.843C727.002 672.774 729.378 675.151 732.309 675.151Z" fill="#FF3C3C" fill-opacity="0.01"/>
</g>
<path d="M732.309 675.151C735.241 675.151 737.617 672.774 737.617 669.843C737.617 666.911 735.241 664.534 732.309 664.534C729.378 664.534 727.002 666.911 727.002 669.843C727.002 672.774 729.378 675.151 732.309 675.151Z" fill="#FF3C3C"/>
<g filter="url(#filter9_d_58_37)">
<path d="M747.349 675.151C750.28 675.151 752.656 672.774 752.656 669.843C752.656 666.911 750.28 664.534 747.349 664.534C744.417 664.534 742.041 666.911 742.041 669.843C742.041 672.774 744.417 675.151 747.349 675.151Z" fill="#FFDD2C" fill-opacity="0.01"/>
</g>
<path d="M747.349 675.151C750.28 675.151 752.656 672.774 752.656 669.843C752.656 666.911 750.28 664.534 747.349 664.534C744.417 664.534 742.041 666.911 742.041 669.843C742.041 672.774 744.417 675.151 747.349 675.151Z" fill="#FFDD2C"/>
<g filter="url(#filter10_d_58_37)">
<path d="M763.271 675.151C766.202 675.151 768.579 672.774 768.579 669.843C768.579 666.911 766.202 664.534 763.271 664.534C760.34 664.534 757.964 666.911 757.964 669.843C757.964 672.774 760.34 675.151 763.271 675.151Z" fill="#5AD86E" fill-opacity="0.01"/>
</g>
<path d="M763.271 675.151C766.202 675.151 768.579 672.774 768.579 669.843C768.579 666.911 766.202 664.534 763.271 664.534C760.34 664.534 757.964 666.911 757.964 669.843C757.964 672.774 760.34 675.151 763.271 675.151Z" fill="#5AD86E"/>
<g filter="url(#filter11_d_58_37)">
<path d="M823.425 690.189H732.309C729.378 690.189 727.002 692.565 727.002 695.498C727.002 698.429 729.378 700.805 732.309 700.805H823.425C826.358 700.805 828.734 698.429 828.734 695.498C828.734 692.565 826.358 690.189 823.425 690.189Z" fill="#302CFF" fill-opacity="0.01"/>
</g>
<path d="M823.425 690.189H732.309C729.378 690.189 727.002 692.565 727.002 695.498C727.002 698.429 729.378 700.805 732.309 700.805H823.425C826.358 700.805 828.734 698.429 828.734 695.498C828.734 692.565 826.358 690.189 823.425 690.189Z" fill="url(#paint5_linear_58_37)"/>
<path opacity="0.2" d="M913.783 709.651H732.309C729.378 709.651 727.002 712.027 727.002 714.959C727.002 717.89 729.378 720.266 732.309 720.266H913.783C916.715 720.266 919.091 717.89 919.091 714.959C919.091 712.027 916.715 709.651 913.783 709.651Z" fill="#A0A0C7"/>
<path opacity="0.2" d="M913.783 806.074H732.309C729.378 806.074 727.002 808.45 727.002 811.383C727.002 814.314 729.378 816.69 732.309 816.69H913.783C916.715 816.69 919.091 814.314 919.091 811.383C919.091 808.45 916.715 806.074 913.783 806.074Z" fill="#A0A0C7"/>
<path opacity="0.2" d="M845.395 767.151H732.309C729.378 767.151 727.002 769.527 727.002 772.459C727.002 775.39 729.378 777.766 732.309 777.766H845.395C848.327 777.766 850.703 775.39 850.703 772.459C850.703 769.527 848.327 767.151 845.395 767.151Z" fill="#A0A0C7"/>
<g filter="url(#filter12_d_58_37)">
<path d="M769.463 786.613H750.001C747.07 786.613 744.693 788.989 744.693 791.921C744.693 794.852 747.07 797.228 750.001 797.228H769.463C772.394 797.228 774.77 794.852 774.77 791.921C774.77 788.989 772.394 786.613 769.463 786.613Z" fill="#302CFF" fill-opacity="0.01"/>
</g>
<path d="M769.463 786.613H750.001C747.07 786.613 744.693 788.989 744.693 791.921C744.693 794.852 747.07 797.228 750.001 797.228H769.463C772.394 797.228 774.77 794.852 774.77 791.921C774.77 788.989 772.394 786.613 769.463 786.613Z" fill="url(#paint6_linear_58_37)"/>
<path opacity="0.2" d="M936.917 786.613H796.674C793.743 786.613 791.367 788.989 791.367 791.921C791.367 794.852 793.743 797.228 796.674 797.228H936.917C939.845 797.228 942.22 794.852 942.22 791.921C942.22 788.989 939.845 786.613 936.917 786.613Z" fill="#A0A0C7"/>
<g filter="url(#filter13_d_58_37)">
<path d="M766.81 729.113H732.309C729.378 729.113 727.002 731.489 727.002 734.421C727.002 737.352 729.378 739.728 732.309 739.728H766.81C769.742 739.728 772.118 737.352 772.118 734.421C772.118 731.489 769.742 729.113 766.81 729.113Z" fill="#302CFF" fill-opacity="0.01"/>
</g>
<path d="M766.81 729.113H732.309C729.378 729.113 727.002 731.489 727.002 734.421C727.002 737.352 729.378 739.728 732.309 739.728H766.81C769.742 739.728 772.118 737.352 772.118 734.421C772.118 731.489 769.742 729.113 766.81 729.113Z" fill="url(#paint7_linear_58_37)"/>
<path opacity="0.2" d="M874.56 729.113H793.658C790.726 729.113 788.35 731.489 788.35 734.421C788.35 737.352 790.726 739.728 793.658 739.728H874.56C877.493 739.728 879.869 737.352 879.869 734.421C879.869 731.489 877.493 729.113 874.56 729.113Z" fill="#A0A0C7"/>
<path opacity="0.2" d="M807.504 748.574H767.695C764.764 748.574 762.388 750.95 762.388 753.883C762.388 756.814 764.764 759.19 767.695 759.19H807.504C810.435 759.19 812.811 756.814 812.811 753.883C812.811 750.95 810.435 748.574 807.504 748.574Z" fill="#A0A0C7"/>
<g filter="url(#filter14_d_58_37)">
<path d="M940.196 748.574H826.964C824.033 748.574 821.657 750.95 821.657 753.883C821.657 756.814 824.033 759.19 826.964 759.19H940.196C943.125 759.19 945.508 756.814 945.508 753.883C945.508 750.95 943.125 748.574 940.196 748.574Z" fill="#302CFF" fill-opacity="0.01"/>
</g>
<path d="M940.196 748.574H826.964C824.033 748.574 821.657 750.95 821.657 753.883C821.657 756.814 824.033 759.19 826.964 759.19H940.196C943.125 759.19 945.508 756.814 945.508 753.883C945.508 750.95 943.125 748.574 940.196 748.574Z" fill="url(#paint8_linear_58_37)"/>
<g filter="url(#filter15_d_58_37)">
<path d="M437.393 815.415C454.922 815.415 469.132 801.205 469.132 783.676C469.132 766.147 454.922 751.937 437.393 751.937C419.864 751.937 405.653 766.147 405.653 783.676C405.653 801.205 419.864 815.415 437.393 815.415Z" fill="#302CFF" fill-opacity="0.01"/>
</g>
<path d="M437.393 815.415C454.922 815.415 469.132 801.205 469.132 783.676C469.132 766.147 454.922 751.937 437.393 751.937C419.864 751.937 405.653 766.147 405.653 783.676C405.653 801.205 419.864 815.415 437.393 815.415Z" fill="url(#paint9_linear_58_37)"/>
<g filter="url(#filter16_d_58_37)">
<path d="M615.97 815.415C633.5 815.415 647.709 801.205 647.709 783.676C647.709 766.147 633.5 751.937 615.97 751.937C598.441 751.937 584.231 766.147 584.231 783.676C584.231 801.205 598.441 815.415 615.97 815.415Z" fill="#302CFF" fill-opacity="0.01"/>
</g>
<path d="M615.97 815.415C633.5 815.415 647.709 801.205 647.709 783.676C647.709 766.147 633.5 751.937 615.97 751.937C598.441 751.937 584.231 766.147 584.231 783.676C584.231 801.205 598.441 815.415 615.97 815.415Z" fill="url(#paint10_linear_58_37)"/>
<g filter="url(#filter17_ddd_58_37)">
<path d="M1006.51 42.4948H820.933C803.592 42.4948 789.533 56.5529 789.533 73.8947V524.258C789.533 541.6 803.592 555.658 820.933 555.658H1006.51C1023.85 555.658 1037.91 541.6 1037.91 524.258V73.8947C1037.91 56.5529 1023.85 42.4948 1006.51 42.4948Z" fill="white" fill-opacity="0.01"/>
</g>
<path d="M1006.51 42.4948H820.933C803.592 42.4948 789.533 56.5529 789.533 73.8947V524.258C789.533 541.6 803.592 555.658 820.933 555.658H1006.51C1023.85 555.658 1037.91 541.6 1037.91 524.258V73.8947C1037.91 56.5529 1023.85 42.4948 1006.51 42.4948Z" fill="white"/>
<path d="M997.158 62.1246H830.277C816.501 62.1246 805.334 73.2918 805.334 87.0672V511.087C805.334 524.862 816.501 536.029 830.277 536.029H997.158C1010.94 536.029 1022.1 524.862 1022.1 511.087V87.0672C1022.1 73.2918 1010.94 62.1246 997.158 62.1246Z" fill="#F6F6FB"/>
<path opacity="0.1" d="M993.879 346.695H833.561C824.887 346.695 817.856 353.726 817.856 362.399V501.964C817.856 510.638 824.887 517.669 833.561 517.669H993.879C1002.55 517.669 1009.58 510.638 1009.58 501.964V362.399C1009.58 353.726 1002.55 346.695 993.879 346.695Z" fill="url(#paint11_linear_58_37)"/>
<g filter="url(#filter18_d_58_37)">
<path d="M913.448 449.438C922.979 449.438 930.709 441.712 930.709 432.181C930.709 422.65 922.979 414.925 913.448 414.925C903.917 414.925 896.19 422.65 896.19 432.181C896.19 441.712 903.917 449.438 913.448 449.438Z" fill="#DDDDF7" fill-opacity="0.01"/>
<path d="M913.72 452.837C917.805 452.837 921.798 451.626 925.194 449.357C928.594 447.087 931.236 443.861 932.806 440.087C934.368 436.312 934.774 432.159 933.98 428.153C933.185 424.146 931.217 420.466 928.326 417.577C925.434 414.688 921.756 412.72 917.749 411.923C913.743 411.127 909.589 411.535 905.816 413.099C902.041 414.662 898.815 417.31 896.545 420.707C894.276 424.104 893.064 428.097 893.064 432.182C893.07 437.658 895.248 442.908 899.121 446.781C902.993 450.654 908.243 452.832 913.72 452.837ZM902.943 430.386H911.475C911.594 430.386 911.708 430.339 911.792 430.254C911.877 430.17 911.924 430.057 911.924 429.937V421.405C911.924 420.929 912.113 420.472 912.449 420.135C912.787 419.799 913.243 419.609 913.72 419.609C914.196 419.609 914.653 419.799 914.99 420.135C915.327 420.472 915.516 420.929 915.516 421.405V429.937C915.516 430.057 915.564 430.17 915.648 430.254C915.732 430.339 915.846 430.386 915.965 430.386H924.492C924.973 430.386 925.425 430.576 925.767 430.912C926.1 431.249 926.294 431.705 926.294 432.182C926.294 432.659 926.1 433.115 925.767 433.452C925.425 433.79 924.973 433.978 924.492 433.978H915.965C915.846 433.978 915.732 434.026 915.648 434.11C915.564 434.194 915.516 434.309 915.516 434.427V442.959C915.516 443.435 915.327 443.892 914.99 444.229C914.653 444.566 914.196 444.755 913.72 444.755C913.243 444.755 912.787 444.566 912.449 444.229C912.113 443.892 911.924 443.435 911.924 442.959V434.427C911.924 434.309 911.877 434.194 911.792 434.11C911.708 434.026 911.594 433.978 911.475 433.978H902.943C902.467 433.978 902.01 433.79 901.672 433.452C901.336 433.115 901.147 432.659 901.147 432.182C901.147 431.705 901.336 431.249 901.672 430.912C902.01 430.576 902.467 430.386 902.943 430.386Z" fill="#302CFF" fill-opacity="0.01"/>
</g>
<path d="M913.448 449.438C922.979 449.438 930.709 441.712 930.709 432.181C930.709 422.65 922.979 414.925 913.448 414.925C903.917 414.925 896.19 422.65 896.19 432.181C896.19 441.712 903.917 449.438 913.448 449.438Z" fill="#DDDDF7"/>
<path d="M913.72 452.837C917.805 452.837 921.798 451.626 925.194 449.357C928.594 447.087 931.236 443.861 932.806 440.087C934.368 436.312 934.774 432.159 933.98 428.153C933.185 424.146 931.217 420.466 928.326 417.577C925.434 414.688 921.756 412.72 917.749 411.923C913.743 411.127 909.589 411.535 905.816 413.099C902.041 414.662 898.815 417.31 896.545 420.707C894.276 424.104 893.064 428.097 893.064 432.182C893.07 437.658 895.248 442.908 899.121 446.781C902.993 450.654 908.243 452.832 913.72 452.837ZM902.943 430.386H911.475C911.594 430.386 911.708 430.339 911.792 430.254C911.877 430.17 911.924 430.057 911.924 429.937V421.405C911.924 420.929 912.113 420.472 912.449 420.135C912.787 419.799 913.243 419.609 913.72 419.609C914.196 419.609 914.653 419.799 914.99 420.135C915.327 420.472 915.516 420.929 915.516 421.405V429.937C915.516 430.057 915.564 430.17 915.648 430.254C915.732 430.339 915.846 430.386 915.965 430.386H924.492C924.973 430.386 925.425 430.576 925.767 430.912C926.1 431.249 926.294 431.705 926.294 432.182C926.294 432.659 926.1 433.115 925.767 433.452C925.425 433.79 924.973 433.978 924.492 433.978H915.965C915.846 433.978 915.732 434.026 915.648 434.11C915.564 434.194 915.516 434.309 915.516 434.427V442.959C915.516 443.435 915.327 443.892 914.99 444.229C914.653 444.566 914.196 444.755 913.72 444.755C913.243 444.755 912.787 444.566 912.449 444.229C912.113 443.892 911.924 443.435 911.924 442.959V434.427C911.924 434.309 911.877 434.194 911.792 434.11C911.708 434.026 911.594 433.978 911.475 433.978H902.943C902.467 433.978 902.01 433.79 901.672 433.452C901.336 433.115 901.147 432.659 901.147 432.182C901.147 431.705 901.336 431.249 901.672 430.912C902.01 430.576 902.467 430.386 902.943 430.386Z" fill="url(#paint12_linear_58_37)"/>
<g filter="url(#filter19_d_58_37)">
<path d="M894.587 284.848H831.89C824.139 284.848 817.856 291.132 817.856 298.883C817.856 306.634 824.139 312.917 831.89 312.917H894.587C902.338 312.917 908.622 306.634 908.622 298.883C908.622 291.132 902.338 284.848 894.587 284.848Z" fill="#302CFF" fill-opacity="0.01"/>
</g>
<path d="M894.587 284.848H831.89C824.139 284.848 817.856 291.132 817.856 298.883C817.856 306.634 824.139 312.917 831.89 312.917H894.587C902.338 312.917 908.622 306.634 908.622 298.883C908.622 291.132 902.338 284.848 894.587 284.848Z" fill="url(#paint13_linear_58_37)"/>
<path opacity="0.8" d="M1000.56 206.552H826.878C821.895 206.552 817.856 210.592 817.856 215.574C817.856 220.557 821.895 224.597 826.878 224.597H1000.56C1005.55 224.597 1009.58 220.557 1009.58 215.574C1009.58 210.592 1005.55 206.552 1000.56 206.552Z" fill="#50507E"/>
<path opacity="0.4" d="M944.095 236.229H824.371C820.773 236.229 817.856 239.147 817.856 242.746C817.856 246.344 820.773 249.262 824.371 249.262H944.095C947.689 249.262 950.608 246.344 950.608 242.746C950.608 239.147 947.689 236.229 944.095 236.229Z" fill="#A0A0C7"/>
<path opacity="0.4" d="M1000.22 258.283H824.371C820.773 258.283 817.856 261.201 817.856 264.8C817.856 268.398 820.773 271.315 824.371 271.315H1000.22C1003.82 271.315 1006.74 268.398 1006.74 264.8C1006.74 261.201 1003.82 258.283 1000.22 258.283Z" fill="#A0A0C7"/>
<path d="M958.395 52.7362H869.047C863.862 52.7362 859.66 56.9394 859.66 62.1243C859.66 67.3092 863.862 71.5124 869.047 71.5124H958.395C963.578 71.5124 967.781 67.3092 967.781 62.1243C967.781 56.9394 963.578 52.7362 958.395 52.7362Z" fill="white"/>
<g filter="url(#filter20_d_58_37)">
<path d="M993.879 91.0485H833.561C824.887 91.0485 817.856 98.0799 817.856 106.753V175.916C817.856 184.588 824.887 191.62 833.561 191.62H993.879C1002.55 191.62 1009.58 184.588 1009.58 175.916V106.753C1009.58 98.0799 1002.55 91.0485 993.879 91.0485Z" fill="#302CFF" fill-opacity="0.01"/>
</g>
<path d="M993.879 91.0485H833.561C824.887 91.0485 817.856 98.0799 817.856 106.753V175.916C817.856 184.588 824.887 191.62 833.561 191.62H993.879C1002.55 191.62 1009.58 184.588 1009.58 175.916V106.753C1009.58 98.0799 1002.55 91.0485 993.879 91.0485Z" fill="url(#paint14_linear_58_37)"/>
<g filter="url(#filter21_d_58_37)">
<path d="M255.236 480.812C261.359 480.812 266.322 475.848 266.322 469.726C266.322 463.604 261.359 458.641 255.236 458.641C249.114 458.641 244.15 463.604 244.15 469.726C244.15 475.848 249.114 480.812 255.236 480.812Z" fill="#302CFF" fill-opacity="0.01"/>
</g>
<path d="M255.236 480.812C261.359 480.812 266.322 475.848 266.322 469.726C266.322 463.604 261.359 458.641 255.236 458.641C249.114 458.641 244.15 463.604 244.15 469.726C244.15 475.848 249.114 480.812 255.236 480.812Z" fill="url(#paint15_linear_58_37)"/>
<g filter="url(#filter22_d_58_37)">
<path d="M739.632 385.688C745.754 385.688 750.718 380.725 750.718 374.603C750.718 368.481 745.754 363.517 739.632 363.517C733.509 363.517 728.546 368.481 728.546 374.603C728.546 380.725 733.509 385.688 739.632 385.688Z" fill="#302CFF" fill-opacity="0.01"/>
</g>
<path d="M739.632 385.688C745.754 385.688 750.718 380.725 750.718 374.603C750.718 368.481 745.754 363.517 739.632 363.517C733.509 363.517 728.546 368.481 728.546 374.603C728.546 380.725 733.509 385.688 739.632 385.688Z" fill="url(#paint16_linear_58_37)"/>
<g filter="url(#filter23_dd_58_37)">
<path d="M1065.72 314.485H943.273C934.774 314.485 927.882 321.375 927.882 329.873V449.677C927.882 458.175 934.774 465.065 943.273 465.065H1065.72C1074.22 465.065 1081.11 458.175 1081.11 449.677V329.873C1081.11 321.375 1074.22 314.485 1065.72 314.485Z" fill="white" fill-opacity="0.01"/>
</g>
<path d="M1065.72 314.485H943.273C934.774 314.485 927.882 321.375 927.882 329.873V449.677C927.882 458.175 934.774 465.065 943.273 465.065H1065.72C1074.22 465.065 1081.11 458.175 1081.11 449.677V329.873C1081.11 321.375 1074.22 314.485 1065.72 314.485Z" fill="white"/>
<path opacity="0.4" d="M1048.51 421.153H960.483C956.483 421.153 953.241 424.395 953.241 428.395C953.241 432.395 956.483 435.637 960.483 435.637H1048.51C1052.51 435.637 1055.75 432.395 1055.75 428.395C1055.75 424.395 1052.51 421.153 1048.51 421.153Z" fill="#A0A0C7"/>
<g filter="url(#filter24_d_58_37)">
<path d="M1004.5 410.263C1022.82 410.263 1037.68 395.41 1037.68 377.088C1037.68 358.765 1022.82 343.912 1004.5 343.912C986.183 343.912 971.329 358.765 971.329 377.088C971.329 395.41 986.183 410.263 1004.5 410.263Z" fill="#302CFF" fill-opacity="0.01"/>
</g>
<path d="M1004.5 410.263C1022.82 410.263 1037.68 395.41 1037.68 377.088C1037.68 358.765 1022.82 343.912 1004.5 343.912C986.183 343.912 971.329 358.765 971.329 377.088C971.329 395.41 986.183 410.263 1004.5 410.263Z" fill="url(#paint17_linear_58_37)"/>
<g filter="url(#filter25_dd_58_37)">
<path d="M349.757 545.373H72.5639C62.3599 545.373 54.0879 553.644 54.0879 563.849V786.114C54.0879 796.318 62.3599 804.59 72.5639 804.59H349.757C359.961 804.59 368.232 796.318 368.232 786.114V563.849C368.232 553.644 359.961 545.373 349.757 545.373Z" fill="white" fill-opacity="0.01"/>
</g>
<path d="M349.757 545.373H72.5639C62.3599 545.373 54.0879 553.644 54.0879 563.849V786.114C54.0879 796.318 62.3599 804.59 72.5639 804.59H349.757C359.961 804.59 368.232 796.318 368.232 786.114V563.849C368.232 553.644 359.961 545.373 349.757 545.373Z" fill="white"/>
<g filter="url(#filter26_d_58_37)">
<path d="M205.163 581.068H161.416C158.484 581.068 156.108 583.444 156.108 586.376C156.108 589.308 158.484 591.684 161.416 591.684H205.163C208.094 591.684 210.47 589.308 210.47 586.376C210.47 583.444 208.094 581.068 205.163 581.068Z" fill="#302CFF" fill-opacity="0.01"/>
</g>
<path d="M205.163 581.068H161.416C158.484 581.068 156.108 583.444 156.108 586.376C156.108 589.308 158.484 591.684 161.416 591.684H205.163C208.094 591.684 210.47 589.308 210.47 586.376C210.47 583.444 208.094 581.068 205.163 581.068Z" fill="url(#paint18_linear_58_37)"/>
<path opacity="0.2" d="M314.56 600.53H182.646C179.713 600.53 177.337 602.906 177.337 605.838C177.337 608.769 179.713 611.145 182.646 611.145H314.56C317.493 611.145 319.869 608.769 319.869 605.838C319.869 602.906 317.493 600.53 314.56 600.53Z" fill="#A0A0C7"/>
<g filter="url(#filter27_d_58_37)">
<path d="M189.263 619.992H161.416C158.484 619.992 156.108 622.368 156.108 625.3C156.108 628.231 158.484 630.607 161.416 630.607H189.263C192.194 630.607 194.57 628.231 194.57 625.3C194.57 622.368 192.194 619.992 189.263 619.992Z" fill="#302CFF" fill-opacity="0.01"/>
</g>
<path d="M189.263 619.992H161.416C158.484 619.992 156.108 622.368 156.108 625.3C156.108 628.231 158.484 630.607 161.416 630.607H189.263C192.194 630.607 194.57 628.231 194.57 625.3C194.57 622.368 192.194 619.992 189.263 619.992Z" fill="url(#paint19_linear_58_37)"/>
<path opacity="0.2" d="M274.674 619.992H207.267C204.335 619.992 201.958 622.368 201.958 625.3C201.958 628.231 204.335 630.607 207.267 630.607H274.674C277.605 630.607 279.981 628.231 279.981 625.3C279.981 622.368 277.605 619.992 274.674 619.992Z" fill="#A0A0C7"/>
<path opacity="0.2" d="M342.117 581.068H223.579C220.648 581.068 218.272 583.444 218.272 586.376C218.272 589.308 220.648 591.684 223.579 591.684H342.117C345.048 591.684 347.425 589.308 347.425 586.376C347.425 583.444 345.048 581.068 342.117 581.068Z" fill="#A0A0C7"/>
<path opacity="0.2" d="M116.9 581.068H73.4709C70.5395 581.068 68.1631 583.444 68.1631 586.376C68.1631 589.308 70.5395 591.684 73.4709 591.684H116.9C119.831 591.684 122.208 589.308 122.208 586.376C122.208 583.444 119.831 581.068 116.9 581.068Z" fill="#A0A0C7"/>
<path opacity="0.2" d="M112.028 653.091H73.4709C70.5395 653.091 68.1631 655.467 68.1631 658.399C68.1631 661.331 70.5395 663.707 73.4709 663.707H112.028C114.959 663.707 117.336 661.331 117.336 658.399C117.336 655.467 114.959 653.091 112.028 653.091Z" fill="#A0A0C7"/>
<path opacity="0.2" d="M107.379 599.074H73.4709C70.5395 599.074 68.1631 601.45 68.1631 604.382C68.1631 607.313 70.5395 609.689 73.4709 609.689H107.379C110.31 609.689 112.686 607.313 112.686 604.382C112.686 601.45 110.31 599.074 107.379 599.074Z" fill="#A0A0C7"/>
<path opacity="0.2" d="M95.7188 671.098H73.4709C70.5395 671.098 68.1631 673.474 68.1631 676.406C68.1631 679.337 70.5395 681.713 73.4709 681.713H95.7188C98.6501 681.713 101.027 679.337 101.027 676.406C101.027 673.474 98.6501 671.098 95.7188 671.098Z" fill="#A0A0C7"/>
<path opacity="0.2" d="M120.69 617.08H73.4709C70.5395 617.08 68.1631 619.456 68.1631 622.388C68.1631 625.319 70.5395 627.695 73.4709 627.695H120.69C123.621 627.695 125.998 625.319 125.998 622.388C125.998 619.456 123.621 617.08 120.69 617.08Z" fill="#A0A0C7"/>
<g filter="url(#filter28_d_58_37)">
<path d="M91.9573 635.086H73.4709C70.5395 635.086 68.1631 637.462 68.1631 640.394C68.1631 643.325 70.5395 645.701 73.4709 645.701H91.9573C94.8883 645.701 97.2653 643.325 97.2653 640.394C97.2653 637.462 94.8883 635.086 91.9573 635.086Z" fill="#302CFF" fill-opacity="0.01"/>
</g>
<path d="M91.9573 635.086H73.4709C70.5395 635.086 68.1631 637.462 68.1631 640.394C68.1631 643.325 70.5395 645.701 73.4709 645.701H91.9573C94.8883 645.701 97.2653 643.325 97.2653 640.394C97.2653 637.462 94.8883 635.086 91.9573 635.086Z" fill="url(#paint20_linear_58_37)"/>
<g filter="url(#filter29_d_58_37)">
<path d="M114.11 770.902H73.4709C70.5395 770.902 68.1631 773.278 68.1631 776.21C68.1631 779.141 70.5395 781.517 73.4709 781.517H114.11C117.041 781.517 119.417 779.141 119.417 776.21C119.417 773.278 117.041 770.902 114.11 770.902Z" fill="#302CFF" fill-opacity="0.01"/>
</g>
<path d="M114.11 770.902H73.4709C70.5395 770.902 68.1631 773.278 68.1631 776.21C68.1631 779.141 70.5395 781.517 73.4709 781.517H114.11C117.041 781.517 119.417 779.141 119.417 776.21C119.417 773.278 117.041 770.902 114.11 770.902Z" fill="url(#paint21_linear_58_37)"/>
<path opacity="0.2" d="M241.903 659.307H177.535C174.604 659.307 172.228 661.683 172.228 664.615C172.228 667.546 174.604 669.922 177.535 669.922H241.903C244.834 669.922 247.211 667.546 247.211 664.615C247.211 661.683 244.834 659.307 241.903 659.307Z" fill="#A0A0C7"/>
<path opacity="0.2" d="M274.675 678.768H161.416C158.484 678.768 156.108 681.144 156.108 684.076C156.108 687.008 158.484 689.384 161.416 689.384H274.675C277.607 689.384 279.983 687.008 279.983 684.076C279.983 681.144 277.607 678.768 274.675 678.768Z" fill="#A0A0C7"/>
<g filter="url(#filter30_d_58_37)">
<path d="M342.117 678.768H292.996C290.065 678.768 287.688 681.144 287.688 684.076C287.688 687.008 290.065 689.384 292.996 689.384H342.117C345.049 689.384 347.425 687.008 347.425 684.076C347.425 681.144 345.049 678.768 342.117 678.768Z" fill="#302CFF" fill-opacity="0.01"/>
</g>
<path d="M342.117 678.768H292.996C290.065 678.768 287.688 681.144 287.688 684.076C287.688 687.008 290.065 689.384 292.996 689.384H342.117C345.049 689.384 347.425 687.008 347.425 684.076C347.425 681.144 345.049 678.768 342.117 678.768Z" fill="url(#paint22_linear_58_37)"/>
<path opacity="0.2" d="M297.11 659.307H259.908C256.977 659.307 254.601 661.683 254.601 664.615C254.601 667.546 256.977 669.922 259.908 669.922H297.11C300.041 669.922 302.417 667.546 302.417 664.615C302.417 661.683 300.041 659.307 297.11 659.307Z" fill="#A0A0C7"/>
<path opacity="0.2" d="M223.953 639.453H191.582C188.65 639.453 186.274 641.829 186.274 644.761C186.274 647.693 188.65 650.069 191.582 650.069H223.953C226.886 650.069 229.262 647.693 229.262 644.761C229.262 641.829 226.886 639.453 223.953 639.453Z" fill="#A0A0C7"/>
<g filter="url(#filter31_d_58_37)">
<path d="M337.079 639.453H242.111C239.179 639.453 236.803 641.829 236.803 644.761C236.803 647.693 239.179 650.069 242.111 650.069H337.079C340.01 650.069 342.386 647.693 342.386 644.761C342.386 641.829 340.01 639.453 337.079 639.453Z" fill="#302CFF" fill-opacity="0.01"/>
</g>
<path d="M337.079 639.453H242.111C239.179 639.453 236.803 641.829 236.803 644.761C236.803 647.693 239.179 650.069 242.111 650.069H337.079C340.01 650.069 342.386 647.693 342.386 644.761C342.386 641.829 340.01 639.453 337.079 639.453Z" fill="url(#paint23_linear_58_37)"/>
<g filter="url(#filter32_d_58_37)">
<path d="M1074.44 644.726C1080.57 644.726 1085.53 639.763 1085.53 633.641C1085.53 627.519 1080.57 622.555 1074.44 622.555C1068.32 622.555 1063.36 627.519 1063.36 633.641C1063.36 639.763 1068.32 644.726 1074.44 644.726Z" fill="#302CFF" fill-opacity="0.01"/>
</g>
<path d="M1074.44 644.726C1080.57 644.726 1085.53 639.763 1085.53 633.641C1085.53 627.519 1080.57 622.555 1074.44 622.555C1068.32 622.555 1063.36 627.519 1063.36 633.641C1063.36 639.763 1068.32 644.726 1074.44 644.726Z" fill="url(#paint24_linear_58_37)"/>
<g filter="url(#filter33_dd_58_37)">
<path d="M815.332 161.796H755.02C746.521 161.796 739.632 168.686 739.632 177.184V235.922C739.632 244.42 746.521 251.31 755.02 251.31H815.332C823.831 251.31 830.72 244.42 830.72 235.922V177.184C830.72 168.686 823.831 161.796 815.332 161.796Z" fill="white" fill-opacity="0.01"/>
</g>
<path d="M815.332 161.796H755.02C746.521 161.796 739.632 168.686 739.632 177.184V235.922C739.632 244.42 746.521 251.31 755.02 251.31H815.332C823.831 251.31 830.72 244.42 830.72 235.922V177.184C830.72 168.686 823.831 161.796 815.332 161.796Z" fill="white"/>
<g filter="url(#filter34_d_58_37)">
<path d="M803.972 172.976H766.379C758.215 172.976 751.598 179.593 751.598 187.757V225.35C751.598 233.513 758.215 240.131 766.379 240.131H803.972C812.135 240.131 818.753 233.513 818.753 225.35V187.757C818.753 179.593 812.135 172.976 803.972 172.976Z" fill="#302CFF" fill-opacity="0.01"/>
</g>
<path d="M803.972 172.976H766.379C758.215 172.976 751.598 179.593 751.598 187.757V225.35C751.598 233.513 758.215 240.131 766.379 240.131H803.972C812.135 240.131 818.753 233.513 818.753 225.35V187.757C818.753 179.593 812.135 172.976 803.972 172.976Z" fill="url(#paint25_linear_58_37)"/>
<path d="M791.641 194.233L803.961 206.552L791.641 218.873" stroke="white" stroke-width="6.4666" stroke-linecap="round" stroke-linejoin="round"/>
<path d="M778.708 194.233L766.388 206.552L778.708 218.873" stroke="white" stroke-width="6.4666" stroke-linecap="round" stroke-linejoin="round"/>
<g filter="url(#filter35_dd_58_37)">
<path d="M272.3 771.581H211.987C203.489 771.581 196.601 778.47 196.601 786.968V843.862C196.601 852.36 203.489 859.249 211.987 859.249H272.3C280.799 859.249 287.688 852.36 287.688 843.862V786.968C287.688 778.47 280.799 771.581 272.3 771.581Z" fill="white" fill-opacity="0.01"/>
</g>
<path d="M272.3 771.581H211.987C203.489 771.581 196.601 778.47 196.601 786.968V843.862C196.601 852.36 203.489 859.249 211.987 859.249H272.3C280.799 859.249 287.688 852.36 287.688 843.862V786.968C287.688 778.47 280.799 771.581 272.3 771.581Z" fill="white"/>
<g filter="url(#filter36_d_58_37)">
<path d="M262.348 780.428H221.936C213.773 780.428 207.155 787.045 207.155 795.209V835.621C207.155 843.785 213.773 850.402 221.936 850.402H262.348C270.512 850.402 277.129 843.785 277.129 835.621V795.209C277.129 787.045 270.512 780.428 262.348 780.428Z" fill="#302CFF" fill-opacity="0.01"/>
</g>
<path d="M262.348 780.428H221.936C213.773 780.428 207.155 787.045 207.155 795.209V835.621C207.155 843.785 213.773 850.402 221.936 850.402H262.348C270.512 850.402 277.129 843.785 277.129 835.621V795.209C277.129 787.045 270.512 780.428 262.348 780.428Z" fill="url(#paint26_linear_58_37)"/>
<path d="M263.615 820.928C263.163 820.231 262.521 819.532 261.689 819.091C261.024 818.765 260.595 818.23 260.215 817.602C259.002 815.602 259.716 812.972 261.737 811.786C264.114 810.46 264.875 807.505 263.496 805.202L261.903 802.458C260.548 800.155 257.576 799.341 255.222 800.69C253.131 801.807 250.444 801.062 249.231 799.085C248.852 798.434 248.637 797.735 248.685 797.038C248.757 796.131 248.471 795.27 248.043 794.572C247.164 793.129 245.57 792.153 243.811 792.153H240.459C238.724 792.199 237.131 793.129 236.251 794.572C235.8 795.27 235.538 796.131 235.586 797.038C235.633 797.735 235.42 798.434 235.039 799.085C233.827 801.062 231.141 801.807 229.072 800.69C226.694 799.341 223.747 800.155 222.368 802.458L220.775 805.202C219.42 807.505 220.181 810.46 222.535 811.786C224.555 812.972 225.268 815.602 224.079 817.602C223.675 818.23 223.248 818.765 222.582 819.091C221.773 819.532 221.06 820.231 220.68 820.928C219.8 822.37 219.848 824.186 220.728 825.697L222.368 828.489C223.248 829.978 224.887 830.908 226.599 830.908C227.408 830.908 228.359 830.675 229.119 830.21C229.714 829.814 230.427 829.675 231.212 829.675C233.565 829.675 235.538 831.606 235.586 833.909C235.586 836.584 237.773 838.678 240.531 838.678H243.764C246.498 838.678 248.685 836.584 248.685 833.909C248.757 831.606 250.73 829.675 253.083 829.675C253.844 829.675 254.557 829.814 255.175 830.21C255.936 830.675 256.863 830.908 257.695 830.908C259.383 830.908 261.024 829.978 261.903 828.489L263.567 825.697C264.423 824.138 264.494 822.37 263.615 820.928Z" fill="white"/>
<path d="M242.17 821.998C238.436 821.998 235.417 819.091 235.417 815.438C235.417 811.786 238.436 808.855 242.17 808.855C245.902 808.855 248.85 811.786 248.85 815.438C248.85 819.091 245.902 821.998 242.17 821.998Z" fill="url(#paint27_linear_58_37)"/>
<g filter="url(#filter37_d_58_37)">
<path d="M394.567 892.301C400.69 892.301 405.653 887.337 405.653 881.215C405.653 875.093 400.69 870.13 394.567 870.13C388.445 870.13 383.481 875.093 383.481 881.215C383.481 887.337 388.445 892.301 394.567 892.301Z" fill="#302CFF" fill-opacity="0.01"/>
</g>
<path d="M394.567 892.301C400.69 892.301 405.653 887.337 405.653 881.215C405.653 875.093 400.69 870.13 394.567 870.13C388.445 870.13 383.481 875.093 383.481 881.215C383.481 887.337 388.445 892.301 394.567 892.301Z" fill="url(#paint28_linear_58_37)"/>
<path opacity="0.11" d="M136.705 568.224V781.74" stroke="#A0A0C7" stroke-width="2.7714" stroke-linecap="round"/>
</g>
</g>
</g>
<defs>
<filter id="filter0_d_58_37" x="124.497" y="911.088" width="38.7998" height="38.7996" filterUnits="userSpaceOnUse" color-interpolation-filters="sRGB">
<feFlood flood-opacity="0" result="BackgroundImageFix"/>
<feColorMatrix in="SourceAlpha" type="matrix" values="0 0 0 0 0 0 0 0 0 0 0 0 0 0 0 0 0 0 127 0" result="hardAlpha"/>
<feOffset dy="3.6952"/>
<feGaussianBlur stdDeviation="4.1571"/>
<feColorMatrix type="matrix" values="0 0 0 0 0.187417 0 0 0 0 0.170833 0 0 0 0 1 0 0 0 0.23 0"/>
<feBlend mode="normal" in2="BackgroundImageFix" result="effect1_dropShadow_58_37"/>
<feBlend mode="normal" in="SourceGraphic" in2="effect1_dropShadow_58_37" result="shape"/>
</filter>
<filter id="filter1_ddd_58_37" x="302.446" y="422.001" width="598.057" height="482.909" filterUnits="userSpaceOnUse" color-interpolation-filters="sRGB">
<feFlood flood-opacity="0" result="BackgroundImageFix"/>
<feColorMatrix in="SourceAlpha" type="matrix" values="0 0 0 0 0 0 0 0 0 0 0 0 0 0 0 0 0 0 127 0" result="hardAlpha"/>
<feOffset dy="6.77145"/>
<feGaussianBlur stdDeviation="8.46201"/>
<feColorMatrix type="matrix" values="0 0 0 0 0.187417 0 0 0 0 0.170833 0 0 0 0 1 0 0 0 0.04 0"/>
<feBlend mode="normal" in2="BackgroundImageFix" result="effect1_dropShadow_58_37"/>
<feColorMatrix in="SourceAlpha" type="matrix" values="0 0 0 0 0 0 0 0 0 0 0 0 0 0 0 0 0 0 127 0" result="hardAlpha"/>
<feOffset dy="5.22871"/>
<feGaussianBlur stdDeviation="5.69061"/>
<feColorMatrix type="matrix" values="0 0 0 0 0.0280847 0 0 0 0 0.0263715 0 0 0 0 0.129167 0 0 0 0.02 0"/>
<feBlend mode="normal" in2="effect1_dropShadow_58_37" result="effect2_dropShadow_58_37"/>
<feColorMatrix in="SourceAlpha" type="matrix" values="0 0 0 0 0 0 0 0 0 0 0 0 0 0 0 0 0 0 127 0" result="hardAlpha"/>
<feOffset dy="-3.6952"/>
<feGaussianBlur stdDeviation="3.2333"/>
<feColorMatrix type="matrix" values="0 0 0 0 0.0280847 0 0 0 0 0.0263715 0 0 0 0 0.129167 0 0 0 0.02 0"/>
<feBlend mode="normal" in2="effect2_dropShadow_58_37" result="effect3_dropShadow_58_37"/>
<feBlend mode="normal" in="SourceGraphic" in2="effect3_dropShadow_58_37" result="shape"/>
</filter>
<filter id="filter2_d_58_37" x="735.395" y="744.084" width="89.3444" height="89.3444" filterUnits="userSpaceOnUse" color-interpolation-filters="sRGB">
<feFlood flood-opacity="0" result="BackgroundImageFix"/>
<feColorMatrix in="SourceAlpha" type="matrix" values="0 0 0 0 0 0 0 0 0 0 0 0 0 0 0 0 0 0 127 0" result="hardAlpha"/>
<feOffset dy="4.619"/>
<feGaussianBlur stdDeviation="6.4666"/>
<feColorMatrix type="matrix" values="0 0 0 0 0.187417 0 0 0 0 0.170833 0 0 0 0 1 0 0 0 0.13 0"/>
<feBlend mode="normal" in2="BackgroundImageFix" result="effect1_dropShadow_58_37"/>
<feBlend mode="normal" in="SourceGraphic" in2="effect1_dropShadow_58_37" result="shape"/>
</filter>
<filter id="filter3_d_58_37" x="357.191" y="633.927" width="106.603" height="49.8852" filterUnits="userSpaceOnUse" color-interpolation-filters="sRGB">
<feFlood flood-opacity="0" result="BackgroundImageFix"/>
<feColorMatrix in="SourceAlpha" type="matrix" values="0 0 0 0 0 0 0 0 0 0 0 0 0 0 0 0 0 0 127 0" result="hardAlpha"/>
<feOffset dy="4.619"/>
<feGaussianBlur stdDeviation="6.4666"/>
<feColorMatrix type="matrix" values="0 0 0 0 0.187417 0 0 0 0 0.170833 0 0 0 0 1 0 0 0 0.18 0"/>
<feBlend mode="normal" in2="BackgroundImageFix" result="effect1_dropShadow_58_37"/>
<feBlend mode="normal" in="SourceGraphic" in2="effect1_dropShadow_58_37" result="shape"/>
</filter>
<filter id="filter4_d_58_37" x="338.54" y="447.303" width="24.2236" height="24.2224" filterUnits="userSpaceOnUse" color-interpolation-filters="sRGB">
<feFlood flood-opacity="0" result="BackgroundImageFix"/>
<feColorMatrix in="SourceAlpha" type="matrix" values="0 0 0 0 0 0 0 0 0 0 0 0 0 0 0 0 0 0 127 0" result="hardAlpha"/>
<feOffset dy="1.53876"/>
<feGaussianBlur stdDeviation="1.92345"/>
<feColorMatrix type="matrix" values="0 0 0 0 1 0 0 0 0 0.235294 0 0 0 0 0.235294 0 0 0 0.21 0"/>
<feBlend mode="normal" in2="BackgroundImageFix" result="effect1_dropShadow_58_37"/>
<feBlend mode="normal" in="SourceGraphic" in2="effect1_dropShadow_58_37" result="shape"/>
</filter>
<filter id="filter5_d_58_37" x="362.415" y="447.303" width="24.2231" height="24.2224" filterUnits="userSpaceOnUse" color-interpolation-filters="sRGB">
<feFlood flood-opacity="0" result="BackgroundImageFix"/>
<feColorMatrix in="SourceAlpha" type="matrix" values="0 0 0 0 0 0 0 0 0 0 0 0 0 0 0 0 0 0 127 0" result="hardAlpha"/>
<feOffset dy="1.53876"/>
<feGaussianBlur stdDeviation="1.92345"/>
<feColorMatrix type="matrix" values="0 0 0 0 1 0 0 0 0 0.866667 0 0 0 0 0.172549 0 0 0 0.27 0"/>
<feBlend mode="normal" in2="BackgroundImageFix" result="effect1_dropShadow_58_37"/>
<feBlend mode="normal" in="SourceGraphic" in2="effect1_dropShadow_58_37" result="shape"/>
</filter>
<filter id="filter6_d_58_37" x="387.979" y="448.073" width="22.6848" height="22.6837" filterUnits="userSpaceOnUse" color-interpolation-filters="sRGB">
<feFlood flood-opacity="0" result="BackgroundImageFix"/>
<feColorMatrix in="SourceAlpha" type="matrix" values="0 0 0 0 0 0 0 0 0 0 0 0 0 0 0 0 0 0 127 0" result="hardAlpha"/>
<feOffset dy="1.53876"/>
<feGaussianBlur stdDeviation="1.53876"/>
<feColorMatrix type="matrix" values="0 0 0 0 0.352941 0 0 0 0 0.847059 0 0 0 0 0.431373 0 0 0 0.23 0"/>
<feBlend mode="normal" in2="BackgroundImageFix" result="effect1_dropShadow_58_37"/>
<feBlend mode="normal" in="SourceGraphic" in2="effect1_dropShadow_58_37" result="shape"/>
</filter>
<filter id="filter7_dd_58_37" x="652.338" y="600.585" width="374.021" height="298.828" filterUnits="userSpaceOnUse" color-interpolation-filters="sRGB">
<feFlood flood-opacity="0" result="BackgroundImageFix"/>
<feColorMatrix in="SourceAlpha" type="matrix" values="0 0 0 0 0 0 0 0 0 0 0 0 0 0 0 0 0 0 127 0" result="hardAlpha"/>
<feOffset dy="6.29108"/>
<feGaussianBlur stdDeviation="26.7163"/>
<feColorMatrix type="matrix" values="0 0 0 0 0.0280847 0 0 0 0 0.0263715 0 0 0 0 0.129167 0 0 0 0.09 0"/>
<feBlend mode="normal" in2="BackgroundImageFix" result="effect1_dropShadow_58_37"/>
<feColorMatrix in="SourceAlpha" type="matrix" values="0 0 0 0 0 0 0 0 0 0 0 0 0 0 0 0 0 0 127 0" result="hardAlpha"/>
<feOffset dy="5.22871"/>
<feGaussianBlur stdDeviation="5.60285"/>
<feColorMatrix type="matrix" values="0 0 0 0 0.187417 0 0 0 0 0.170833 0 0 0 0 1 0 0 0 0.04 0"/>
<feBlend mode="normal" in2="effect1_dropShadow_58_37" result="effect2_dropShadow_58_37"/>
<feBlend mode="normal" in="SourceGraphic" in2="effect2_dropShadow_58_37" result="shape"/>
</filter>
<filter id="filter8_d_58_37" x="722.579" y="661.881" width="19.4615" height="19.4626" filterUnits="userSpaceOnUse" color-interpolation-filters="sRGB">
<feFlood flood-opacity="0" result="BackgroundImageFix"/>
<feColorMatrix in="SourceAlpha" type="matrix" values="0 0 0 0 0 0 0 0 0 0 0 0 0 0 0 0 0 0 127 0" result="hardAlpha"/>
<feOffset dy="1.76924"/>
<feGaussianBlur stdDeviation="2.21156"/>
<feColorMatrix type="matrix" values="0 0 0 0 1 0 0 0 0 0.235294 0 0 0 0 0.235294 0 0 0 0.21 0"/>
<feBlend mode="normal" in2="BackgroundImageFix" result="effect1_dropShadow_58_37"/>
<feBlend mode="normal" in="SourceGraphic" in2="effect1_dropShadow_58_37" result="shape"/>
</filter>
<filter id="filter9_d_58_37" x="737.617" y="661.881" width="19.4615" height="19.4626" filterUnits="userSpaceOnUse" color-interpolation-filters="sRGB">
<feFlood flood-opacity="0" result="BackgroundImageFix"/>
<feColorMatrix in="SourceAlpha" type="matrix" values="0 0 0 0 0 0 0 0 0 0 0 0 0 0 0 0 0 0 127 0" result="hardAlpha"/>
<feOffset dy="1.76924"/>
<feGaussianBlur stdDeviation="2.21156"/>
<feColorMatrix type="matrix" values="0 0 0 0 1 0 0 0 0 0.866667 0 0 0 0 0.172549 0 0 0 0.27 0"/>
<feBlend mode="normal" in2="BackgroundImageFix" result="effect1_dropShadow_58_37"/>
<feBlend mode="normal" in="SourceGraphic" in2="effect1_dropShadow_58_37" result="shape"/>
</filter>
<filter id="filter10_d_58_37" x="754.425" y="662.765" width="17.6922" height="17.6933" filterUnits="userSpaceOnUse" color-interpolation-filters="sRGB">
<feFlood flood-opacity="0" result="BackgroundImageFix"/>
<feColorMatrix in="SourceAlpha" type="matrix" values="0 0 0 0 0 0 0 0 0 0 0 0 0 0 0 0 0 0 127 0" result="hardAlpha"/>
<feOffset dy="1.76924"/>
<feGaussianBlur stdDeviation="1.76924"/>
<feColorMatrix type="matrix" values="0 0 0 0 0.352941 0 0 0 0 0.847059 0 0 0 0 0.431373 0 0 0 0.23 0"/>
<feBlend mode="normal" in2="BackgroundImageFix" result="effect1_dropShadow_58_37"/>
<feBlend mode="normal" in="SourceGraphic" in2="effect1_dropShadow_58_37" result="shape"/>
</filter>
<filter id="filter11_d_58_37" x="720.083" y="685.811" width="115.57" height="24.4539" filterUnits="userSpaceOnUse" color-interpolation-filters="sRGB">
<feFlood flood-opacity="0" result="BackgroundImageFix"/>
<feColorMatrix in="SourceAlpha" type="matrix" values="0 0 0 0 0 0 0 0 0 0 0 0 0 0 0 0 0 0 127 0" result="hardAlpha"/>
<feOffset dy="2.54045"/>
<feGaussianBlur stdDeviation="3.45963"/>
<feColorMatrix type="matrix" values="0 0 0 0 0.187417 0 0 0 0 0.170833 0 0 0 0 1 0 0 0 0.2 0"/>
<feBlend mode="normal" in2="BackgroundImageFix" result="effect1_dropShadow_58_37"/>
<feBlend mode="normal" in="SourceGraphic" in2="effect1_dropShadow_58_37" result="shape"/>
</filter>
<filter id="filter12_d_58_37" x="737.774" y="782.234" width="43.9157" height="24.4539" filterUnits="userSpaceOnUse" color-interpolation-filters="sRGB">
<feFlood flood-opacity="0" result="BackgroundImageFix"/>
<feColorMatrix in="SourceAlpha" type="matrix" values="0 0 0 0 0 0 0 0 0 0 0 0 0 0 0 0 0 0 127 0" result="hardAlpha"/>
<feOffset dy="2.54045"/>
<feGaussianBlur stdDeviation="3.45963"/>
<feColorMatrix type="matrix" values="0 0 0 0 0.187417 0 0 0 0 0.170833 0 0 0 0 1 0 0 0 0.2 0"/>
<feBlend mode="normal" in2="BackgroundImageFix" result="effect1_dropShadow_58_37"/>
<feBlend mode="normal" in="SourceGraphic" in2="effect1_dropShadow_58_37" result="shape"/>
</filter>
<filter id="filter13_d_58_37" x="720.083" y="724.734" width="58.9542" height="24.4539" filterUnits="userSpaceOnUse" color-interpolation-filters="sRGB">
<feFlood flood-opacity="0" result="BackgroundImageFix"/>
<feColorMatrix in="SourceAlpha" type="matrix" values="0 0 0 0 0 0 0 0 0 0 0 0 0 0 0 0 0 0 127 0" result="hardAlpha"/>
<feOffset dy="2.54045"/>
<feGaussianBlur stdDeviation="3.45963"/>
<feColorMatrix type="matrix" values="0 0 0 0 0.187417 0 0 0 0 0.170833 0 0 0 0 1 0 0 0 0.2 0"/>
<feBlend mode="normal" in2="BackgroundImageFix" result="effect1_dropShadow_58_37"/>
<feBlend mode="normal" in="SourceGraphic" in2="effect1_dropShadow_58_37" result="shape"/>
</filter>
<filter id="filter14_d_58_37" x="814.738" y="744.196" width="137.69" height="24.4539" filterUnits="userSpaceOnUse" color-interpolation-filters="sRGB">
<feFlood flood-opacity="0" result="BackgroundImageFix"/>
<feColorMatrix in="SourceAlpha" type="matrix" values="0 0 0 0 0 0 0 0 0 0 0 0 0 0 0 0 0 0 127 0" result="hardAlpha"/>
<feOffset dy="2.54045"/>
<feGaussianBlur stdDeviation="3.45963"/>
<feColorMatrix type="matrix" values="0 0 0 0 0.187417 0 0 0 0 0.170833 0 0 0 0 1 0 0 0 0.2 0"/>
<feBlend mode="normal" in2="BackgroundImageFix" result="effect1_dropShadow_58_37"/>
<feBlend mode="normal" in="SourceGraphic" in2="effect1_dropShadow_58_37" result="shape"/>
</filter>
<filter id="filter15_d_58_37" x="392.72" y="743.623" width="89.3454" height="89.3444" filterUnits="userSpaceOnUse" color-interpolation-filters="sRGB">
<feFlood flood-opacity="0" result="BackgroundImageFix"/>
<feColorMatrix in="SourceAlpha" type="matrix" values="0 0 0 0 0 0 0 0 0 0 0 0 0 0 0 0 0 0 127 0" result="hardAlpha"/>
<feOffset dy="4.619"/>
<feGaussianBlur stdDeviation="6.4666"/>
<feColorMatrix type="matrix" values="0 0 0 0 0.187417 0 0 0 0 0.170833 0 0 0 0 1 0 0 0 0.13 0"/>
<feBlend mode="normal" in2="BackgroundImageFix" result="effect1_dropShadow_58_37"/>
<feBlend mode="normal" in="SourceGraphic" in2="effect1_dropShadow_58_37" result="shape"/>
</filter>
<filter id="filter16_d_58_37" x="571.298" y="743.623" width="89.3444" height="89.3444" filterUnits="userSpaceOnUse" color-interpolation-filters="sRGB">
<feFlood flood-opacity="0" result="BackgroundImageFix"/>
<feColorMatrix in="SourceAlpha" type="matrix" values="0 0 0 0 0 0 0 0 0 0 0 0 0 0 0 0 0 0 127 0" result="hardAlpha"/>
<feOffset dy="4.619"/>
<feGaussianBlur stdDeviation="6.4666"/>
<feColorMatrix type="matrix" values="0 0 0 0 0.187417 0 0 0 0 0.170833 0 0 0 0 1 0 0 0 0.13 0"/>
<feBlend mode="normal" in2="BackgroundImageFix" result="effect1_dropShadow_58_37"/>
<feBlend mode="normal" in="SourceGraphic" in2="effect1_dropShadow_58_37" result="shape"/>
</filter>
<filter id="filter17_ddd_58_37" x="741.2" y="0.314052" width="345.04" height="609.83" filterUnits="userSpaceOnUse" color-interpolation-filters="sRGB">
<feFlood flood-opacity="0" result="BackgroundImageFix"/>
<feColorMatrix in="SourceAlpha" type="matrix" values="0 0 0 0 0 0 0 0 0 0 0 0 0 0 0 0 0 0 127 0" result="hardAlpha"/>
<feOffset dy="7.69525"/>
<feGaussianBlur stdDeviation="11.2334"/>
<feColorMatrix type="matrix" values="0 0 0 0 0.187417 0 0 0 0 0.170833 0 0 0 0 1 0 0 0 0.05 0"/>
<feBlend mode="normal" in2="BackgroundImageFix" result="effect1_dropShadow_58_37"/>
<feColorMatrix in="SourceAlpha" type="matrix" values="0 0 0 0 0 0 0 0 0 0 0 0 0 0 0 0 0 0 127 0" result="hardAlpha"/>
<feOffset dy="6.15251"/>
<feGaussianBlur stdDeviation="24.1666"/>
<feColorMatrix type="matrix" values="0 0 0 0 0.0280847 0 0 0 0 0.0263715 0 0 0 0 0.129167 0 0 0 0.02 0"/>
<feBlend mode="normal" in2="effect1_dropShadow_58_37" result="effect2_dropShadow_58_37"/>
<feColorMatrix in="SourceAlpha" type="matrix" values="0 0 0 0 0 0 0 0 0 0 0 0 0 0 0 0 0 0 127 0" result="hardAlpha"/>
<feOffset dy="-3.6952"/>
<feGaussianBlur stdDeviation="3.2333"/>
<feColorMatrix type="matrix" values="0 0 0 0 0.0280847 0 0 0 0 0.0263715 0 0 0 0 0.129167 0 0 0 0.01 0"/>
<feBlend mode="normal" in2="effect2_dropShadow_58_37" result="effect3_dropShadow_58_37"/>
<feBlend mode="normal" in="SourceGraphic" in2="effect3_dropShadow_58_37" result="shape"/>
</filter>
<filter id="filter18_d_58_37" x="883.826" y="405.984" width="59.787" height="59.7867" filterUnits="userSpaceOnUse" color-interpolation-filters="sRGB">
<feFlood flood-opacity="0" result="BackgroundImageFix"/>
<feColorMatrix in="SourceAlpha" type="matrix" values="0 0 0 0 0 0 0 0 0 0 0 0 0 0 0 0 0 0 127 0" result="hardAlpha"/>
<feOffset dy="3.6952"/>
<feGaussianBlur stdDeviation="4.619"/>
<feColorMatrix type="matrix" values="0 0 0 0 0.187417 0 0 0 0 0.170833 0 0 0 0 1 0 0 0 0.24 0"/>
<feBlend mode="normal" in2="BackgroundImageFix" result="effect1_dropShadow_58_37"/>
<feBlend mode="normal" in="SourceGraphic" in2="effect1_dropShadow_58_37" result="shape"/>
</filter>
<filter id="filter19_d_58_37" x="804.923" y="276.534" width="116.633" height="53.9351" filterUnits="userSpaceOnUse" color-interpolation-filters="sRGB">
<feFlood flood-opacity="0" result="BackgroundImageFix"/>
<feColorMatrix in="SourceAlpha" type="matrix" values="0 0 0 0 0 0 0 0 0 0 0 0 0 0 0 0 0 0 127 0" result="hardAlpha"/>
<feOffset dy="4.619"/>
<feGaussianBlur stdDeviation="6.4666"/>
<feColorMatrix type="matrix" values="0 0 0 0 0.187417 0 0 0 0 0.170833 0 0 0 0 1 0 0 0 0.18 0"/>
<feBlend mode="normal" in2="BackgroundImageFix" result="effect1_dropShadow_58_37"/>
<feBlend mode="normal" in="SourceGraphic" in2="effect1_dropShadow_58_37" result="shape"/>
</filter>
<filter id="filter20_d_58_37" x="808.618" y="84.5819" width="210.204" height="119.048" filterUnits="userSpaceOnUse" color-interpolation-filters="sRGB">
<feFlood flood-opacity="0" result="BackgroundImageFix"/>
<feColorMatrix in="SourceAlpha" type="matrix" values="0 0 0 0 0 0 0 0 0 0 0 0 0 0 0 0 0 0 127 0" result="hardAlpha"/>
<feOffset dy="2.7714"/>
<feGaussianBlur stdDeviation="4.619"/>
<feColorMatrix type="matrix" values="0 0 0 0 0.187417 0 0 0 0 0.170833 0 0 0 0 1 0 0 0 0.17 0"/>
<feBlend mode="normal" in2="BackgroundImageFix" result="effect1_dropShadow_58_37"/>
<feBlend mode="normal" in="SourceGraphic" in2="effect1_dropShadow_58_37" result="shape"/>
</filter>
<filter id="filter21_d_58_37" x="235.836" y="454.022" width="38.7998" height="38.7996" filterUnits="userSpaceOnUse" color-interpolation-filters="sRGB">
<feFlood flood-opacity="0" result="BackgroundImageFix"/>
<feColorMatrix in="SourceAlpha" type="matrix" values="0 0 0 0 0 0 0 0 0 0 0 0 0 0 0 0 0 0 127 0" result="hardAlpha"/>
<feOffset dy="3.6952"/>
<feGaussianBlur stdDeviation="4.1571"/>
<feColorMatrix type="matrix" values="0 0 0 0 0.187417 0 0 0 0 0.170833 0 0 0 0 1 0 0 0 0.23 0"/>
<feBlend mode="normal" in2="BackgroundImageFix" result="effect1_dropShadow_58_37"/>
<feBlend mode="normal" in="SourceGraphic" in2="effect1_dropShadow_58_37" result="shape"/>
</filter>
<filter id="filter22_d_58_37" x="720.232" y="358.898" width="38.7998" height="38.7996" filterUnits="userSpaceOnUse" color-interpolation-filters="sRGB">
<feFlood flood-opacity="0" result="BackgroundImageFix"/>
<feColorMatrix in="SourceAlpha" type="matrix" values="0 0 0 0 0 0 0 0 0 0 0 0 0 0 0 0 0 0 127 0" result="hardAlpha"/>
<feOffset dy="3.6952"/>
<feGaussianBlur stdDeviation="4.1571"/>
<feColorMatrix type="matrix" values="0 0 0 0 0.187417 0 0 0 0 0.170833 0 0 0 0 1 0 0 0 0.23 0"/>
<feBlend mode="normal" in2="BackgroundImageFix" result="effect1_dropShadow_58_37"/>
<feBlend mode="normal" in="SourceGraphic" in2="effect1_dropShadow_58_37" result="shape"/>
</filter>
<filter id="filter23_dd_58_37" x="896.473" y="288.619" width="216.049" height="213.398" filterUnits="userSpaceOnUse" color-interpolation-filters="sRGB">
<feFlood flood-opacity="0" result="BackgroundImageFix"/>
<feColorMatrix in="SourceAlpha" type="matrix" values="0 0 0 0 0 0 0 0 0 0 0 0 0 0 0 0 0 0 127 0" result="hardAlpha"/>
<feOffset dy="5.5428"/>
<feGaussianBlur stdDeviation="15.7046"/>
<feColorMatrix type="matrix" values="0 0 0 0 0.0280847 0 0 0 0 0.0263715 0 0 0 0 0.129167 0 0 0 0.08 0"/>
<feBlend mode="normal" in2="BackgroundImageFix" result="effect1_dropShadow_58_37"/>
<feColorMatrix in="SourceAlpha" type="matrix" values="0 0 0 0 0 0 0 0 0 0 0 0 0 0 0 0 0 0 127 0" result="hardAlpha"/>
<feOffset dy="3.6952"/>
<feGaussianBlur stdDeviation="11.0856"/>
<feColorMatrix type="matrix" values="0 0 0 0 0.187417 0 0 0 0 0.170833 0 0 0 0 1 0 0 0 0.03 0"/>
<feBlend mode="normal" in2="effect1_dropShadow_58_37" result="effect2_dropShadow_58_37"/>
<feBlend mode="normal" in="SourceGraphic" in2="effect2_dropShadow_58_37" result="shape"/>
</filter>
<filter id="filter24_d_58_37" x="958.395" y="335.598" width="92.2136" height="92.2174" filterUnits="userSpaceOnUse" color-interpolation-filters="sRGB">
<feFlood flood-opacity="0" result="BackgroundImageFix"/>
<feColorMatrix in="SourceAlpha" type="matrix" values="0 0 0 0 0 0 0 0 0 0 0 0 0 0 0 0 0 0 127 0" result="hardAlpha"/>
<feOffset dy="4.619"/>
<feGaussianBlur stdDeviation="6.4666"/>
<feColorMatrix type="matrix" values="0 0 0 0 0.187417 0 0 0 0 0.170833 0 0 0 0 1 0 0 0 0.13 0"/>
<feBlend mode="normal" in2="BackgroundImageFix" result="effect1_dropShadow_58_37"/>
<feBlend mode="normal" in="SourceGraphic" in2="effect1_dropShadow_58_37" result="shape"/>
</filter>
<filter id="filter25_dd_58_37" x="0.655308" y="498.231" width="421.01" height="366.082" filterUnits="userSpaceOnUse" color-interpolation-filters="sRGB">
<feFlood flood-opacity="0" result="BackgroundImageFix"/>
<feColorMatrix in="SourceAlpha" type="matrix" values="0 0 0 0 0 0 0 0 0 0 0 0 0 0 0 0 0 0 127 0" result="hardAlpha"/>
<feOffset dy="6.29108"/>
<feGaussianBlur stdDeviation="26.7163"/>
<feColorMatrix type="matrix" values="0 0 0 0 0.0280847 0 0 0 0 0.0263715 0 0 0 0 0.129167 0 0 0 0.05 0"/>
<feBlend mode="normal" in2="BackgroundImageFix" result="effect1_dropShadow_58_37"/>
<feColorMatrix in="SourceAlpha" type="matrix" values="0 0 0 0 0 0 0 0 0 0 0 0 0 0 0 0 0 0 127 0" result="hardAlpha"/>
<feOffset dy="5.22871"/>
<feGaussianBlur stdDeviation="5.60285"/>
<feColorMatrix type="matrix" values="0 0 0 0 0.187417 0 0 0 0 0.170833 0 0 0 0 1 0 0 0 0.06 0"/>
<feBlend mode="normal" in2="effect1_dropShadow_58_37" result="effect2_dropShadow_58_37"/>
<feBlend mode="normal" in="SourceGraphic" in2="effect2_dropShadow_58_37" result="shape"/>
</filter>
<filter id="filter26_d_58_37" x="149.189" y="576.689" width="68.2003" height="24.4539" filterUnits="userSpaceOnUse" color-interpolation-filters="sRGB">
<feFlood flood-opacity="0" result="BackgroundImageFix"/>
<feColorMatrix in="SourceAlpha" type="matrix" values="0 0 0 0 0 0 0 0 0 0 0 0 0 0 0 0 0 0 127 0" result="hardAlpha"/>
<feOffset dy="2.54045"/>
<feGaussianBlur stdDeviation="3.45963"/>
<feColorMatrix type="matrix" values="0 0 0 0 0.187417 0 0 0 0 0.170833 0 0 0 0 1 0 0 0 0.2 0"/>
<feBlend mode="normal" in2="BackgroundImageFix" result="effect1_dropShadow_58_37"/>
<feBlend mode="normal" in="SourceGraphic" in2="effect1_dropShadow_58_37" result="shape"/>
</filter>
<filter id="filter27_d_58_37" x="149.189" y="615.613" width="52.2999" height="24.4539" filterUnits="userSpaceOnUse" color-interpolation-filters="sRGB">
<feFlood flood-opacity="0" result="BackgroundImageFix"/>
<feColorMatrix in="SourceAlpha" type="matrix" values="0 0 0 0 0 0 0 0 0 0 0 0 0 0 0 0 0 0 127 0" result="hardAlpha"/>
<feOffset dy="2.54045"/>
<feGaussianBlur stdDeviation="3.45963"/>
<feColorMatrix type="matrix" values="0 0 0 0 0.187417 0 0 0 0 0.170833 0 0 0 0 1 0 0 0 0.2 0"/>
<feBlend mode="normal" in2="BackgroundImageFix" result="effect1_dropShadow_58_37"/>
<feBlend mode="normal" in="SourceGraphic" in2="effect1_dropShadow_58_37" result="shape"/>
</filter>
<filter id="filter28_d_58_37" x="61.6965" y="630.467" width="42.0352" height="23.5486" filterUnits="userSpaceOnUse" color-interpolation-filters="sRGB">
<feFlood flood-opacity="0" result="BackgroundImageFix"/>
<feColorMatrix in="SourceAlpha" type="matrix" values="0 0 0 0 0 0 0 0 0 0 0 0 0 0 0 0 0 0 127 0" result="hardAlpha"/>
<feOffset dy="1.8476"/>
<feGaussianBlur stdDeviation="3.2333"/>
<feColorMatrix type="matrix" values="0 0 0 0 0.187417 0 0 0 0 0.170833 0 0 0 0 1 0 0 0 0.23 0"/>
<feBlend mode="normal" in2="BackgroundImageFix" result="effect1_dropShadow_58_37"/>
<feBlend mode="normal" in="SourceGraphic" in2="effect1_dropShadow_58_37" result="shape"/>
</filter>
<filter id="filter29_d_58_37" x="61.6965" y="766.283" width="64.1871" height="23.5486" filterUnits="userSpaceOnUse" color-interpolation-filters="sRGB">
<feFlood flood-opacity="0" result="BackgroundImageFix"/>
<feColorMatrix in="SourceAlpha" type="matrix" values="0 0 0 0 0 0 0 0 0 0 0 0 0 0 0 0 0 0 127 0" result="hardAlpha"/>
<feOffset dy="1.8476"/>
<feGaussianBlur stdDeviation="3.2333"/>
<feColorMatrix type="matrix" values="0 0 0 0 0.187417 0 0 0 0 0.170833 0 0 0 0 1 0 0 0 0.23 0"/>
<feBlend mode="normal" in2="BackgroundImageFix" result="effect1_dropShadow_58_37"/>
<feBlend mode="normal" in="SourceGraphic" in2="effect1_dropShadow_58_37" result="shape"/>
</filter>
<filter id="filter30_d_58_37" x="280.769" y="674.39" width="73.5753" height="24.4539" filterUnits="userSpaceOnUse" color-interpolation-filters="sRGB">
<feFlood flood-opacity="0" result="BackgroundImageFix"/>
<feColorMatrix in="SourceAlpha" type="matrix" values="0 0 0 0 0 0 0 0 0 0 0 0 0 0 0 0 0 0 127 0" result="hardAlpha"/>
<feOffset dy="2.54045"/>
<feGaussianBlur stdDeviation="3.45963"/>
<feColorMatrix type="matrix" values="0 0 0 0 0.187417 0 0 0 0 0.170833 0 0 0 0 1 0 0 0 0.2 0"/>
<feBlend mode="normal" in2="BackgroundImageFix" result="effect1_dropShadow_58_37"/>
<feBlend mode="normal" in="SourceGraphic" in2="effect1_dropShadow_58_37" result="shape"/>
</filter>
<filter id="filter31_d_58_37" x="229.884" y="635.074" width="119.422" height="24.4539" filterUnits="userSpaceOnUse" color-interpolation-filters="sRGB">
<feFlood flood-opacity="0" result="BackgroundImageFix"/>
<feColorMatrix in="SourceAlpha" type="matrix" values="0 0 0 0 0 0 0 0 0 0 0 0 0 0 0 0 0 0 127 0" result="hardAlpha"/>
<feOffset dy="2.54045"/>
<feGaussianBlur stdDeviation="3.45963"/>
<feColorMatrix type="matrix" values="0 0 0 0 0.187417 0 0 0 0 0.170833 0 0 0 0 1 0 0 0 0.2 0"/>
<feBlend mode="normal" in2="BackgroundImageFix" result="effect1_dropShadow_58_37"/>
<feBlend mode="normal" in="SourceGraphic" in2="effect1_dropShadow_58_37" result="shape"/>
</filter>
<filter id="filter32_d_58_37" x="1055.04" y="617.936" width="38.7998" height="38.7996" filterUnits="userSpaceOnUse" color-interpolation-filters="sRGB">
<feFlood flood-opacity="0" result="BackgroundImageFix"/>
<feColorMatrix in="SourceAlpha" type="matrix" values="0 0 0 0 0 0 0 0 0 0 0 0 0 0 0 0 0 0 127 0" result="hardAlpha"/>
<feOffset dy="3.6952"/>
<feGaussianBlur stdDeviation="4.1571"/>
<feColorMatrix type="matrix" values="0 0 0 0 0.187417 0 0 0 0 0.170833 0 0 0 0 1 0 0 0 0.23 0"/>
<feBlend mode="normal" in2="BackgroundImageFix" result="effect1_dropShadow_58_37"/>
<feBlend mode="normal" in="SourceGraphic" in2="effect1_dropShadow_58_37" result="shape"/>
</filter>
<filter id="filter33_dd_58_37" x="689.747" y="117.454" width="190.858" height="189.284" filterUnits="userSpaceOnUse" color-interpolation-filters="sRGB">
<feFlood flood-opacity="0" result="BackgroundImageFix"/>
<feColorMatrix in="SourceAlpha" type="matrix" values="0 0 0 0 0 0 0 0 0 0 0 0 0 0 0 0 0 0 127 0" result="hardAlpha"/>
<feOffset dy="4.619"/>
<feGaussianBlur stdDeviation="8.7761"/>
<feColorMatrix type="matrix" values="0 0 0 0 0.0280847 0 0 0 0 0.0263715 0 0 0 0 0.129167 0 0 0 0.07 0"/>
<feBlend mode="normal" in2="BackgroundImageFix" result="effect1_dropShadow_58_37"/>
<feColorMatrix in="SourceAlpha" type="matrix" values="0 0 0 0 0 0 0 0 0 0 0 0 0 0 0 0 0 0 127 0" result="hardAlpha"/>
<feOffset dy="5.5428"/>
<feGaussianBlur stdDeviation="24.9426"/>
<feColorMatrix type="matrix" values="0 0 0 0 0.187417 0 0 0 0 0.170833 0 0 0 0 1 0 0 0 0.11 0"/>
<feBlend mode="normal" in2="effect1_dropShadow_58_37" result="effect2_dropShadow_58_37"/>
<feBlend mode="normal" in="SourceGraphic" in2="effect2_dropShadow_58_37" result="shape"/>
</filter>
<filter id="filter34_d_58_37" x="742.36" y="165.586" width="85.6308" height="85.6307" filterUnits="userSpaceOnUse" color-interpolation-filters="sRGB">
<feFlood flood-opacity="0" result="BackgroundImageFix"/>
<feColorMatrix in="SourceAlpha" type="matrix" values="0 0 0 0 0 0 0 0 0 0 0 0 0 0 0 0 0 0 127 0" result="hardAlpha"/>
<feOffset dy="1.8476"/>
<feGaussianBlur stdDeviation="4.619"/>
<feColorMatrix type="matrix" values="0 0 0 0 0.187417 0 0 0 0 0.170833 0 0 0 0 1 0 0 0 0.33 0"/>
<feBlend mode="normal" in2="BackgroundImageFix" result="effect1_dropShadow_58_37"/>
<feBlend mode="normal" in="SourceGraphic" in2="effect1_dropShadow_58_37" result="shape"/>
</filter>
<filter id="filter35_dd_58_37" x="146.715" y="727.238" width="190.858" height="187.439" filterUnits="userSpaceOnUse" color-interpolation-filters="sRGB">
<feFlood flood-opacity="0" result="BackgroundImageFix"/>
<feColorMatrix in="SourceAlpha" type="matrix" values="0 0 0 0 0 0 0 0 0 0 0 0 0 0 0 0 0 0 127 0" result="hardAlpha"/>
<feOffset dy="4.619"/>
<feGaussianBlur stdDeviation="8.7761"/>
<feColorMatrix type="matrix" values="0 0 0 0 0.0280847 0 0 0 0 0.0263715 0 0 0 0 0.129167 0 0 0 0.07 0"/>
<feBlend mode="normal" in2="BackgroundImageFix" result="effect1_dropShadow_58_37"/>
<feColorMatrix in="SourceAlpha" type="matrix" values="0 0 0 0 0 0 0 0 0 0 0 0 0 0 0 0 0 0 127 0" result="hardAlpha"/>
<feOffset dy="5.5428"/>
<feGaussianBlur stdDeviation="24.9426"/>
<feColorMatrix type="matrix" values="0 0 0 0 0.187417 0 0 0 0 0.170833 0 0 0 0 1 0 0 0 0.11 0"/>
<feBlend mode="normal" in2="effect1_dropShadow_58_37" result="effect2_dropShadow_58_37"/>
<feBlend mode="normal" in="SourceGraphic" in2="effect2_dropShadow_58_37" result="shape"/>
</filter>
<filter id="filter36_d_58_37" x="197.917" y="773.038" width="88.4501" height="88.4501" filterUnits="userSpaceOnUse" color-interpolation-filters="sRGB">
<feFlood flood-opacity="0" result="BackgroundImageFix"/>
<feColorMatrix in="SourceAlpha" type="matrix" values="0 0 0 0 0 0 0 0 0 0 0 0 0 0 0 0 0 0 127 0" result="hardAlpha"/>
<feOffset dy="1.8476"/>
<feGaussianBlur stdDeviation="4.619"/>
<feColorMatrix type="matrix" values="0 0 0 0 0.187417 0 0 0 0 0.170833 0 0 0 0 1 0 0 0 0.33 0"/>
<feBlend mode="normal" in2="BackgroundImageFix" result="effect1_dropShadow_58_37"/>
<feBlend mode="normal" in="SourceGraphic" in2="effect1_dropShadow_58_37" result="shape"/>
</filter>
<filter id="filter37_d_58_37" x="375.167" y="865.511" width="38.7998" height="38.7996" filterUnits="userSpaceOnUse" color-interpolation-filters="sRGB">
<feFlood flood-opacity="0" result="BackgroundImageFix"/>
<feColorMatrix in="SourceAlpha" type="matrix" values="0 0 0 0 0 0 0 0 0 0 0 0 0 0 0 0 0 0 127 0" result="hardAlpha"/>
<feOffset dy="3.6952"/>
<feGaussianBlur stdDeviation="4.1571"/>
<feColorMatrix type="matrix" values="0 0 0 0 0.187417 0 0 0 0 0.170833 0 0 0 0 1 0 0 0 0.23 0"/>
<feBlend mode="normal" in2="BackgroundImageFix" result="effect1_dropShadow_58_37"/>
<feBlend mode="normal" in="SourceGraphic" in2="effect1_dropShadow_58_37" result="shape"/>
</filter>
<linearGradient id="paint0_linear_58_37" x1="132.811" y1="926.793" x2="154.982" y2="926.793" gradientUnits="userSpaceOnUse">
<stop/>
<stop offset="0.535" stop-color="#1C1C3C"/>
<stop offset="0.98" stop-color="#2E2E2E"/>
</linearGradient>
<linearGradient id="paint1_linear_58_37" x1="394.64" y1="430.902" x2="723.786" y2="430.902" gradientUnits="userSpaceOnUse">
<stop/>
<stop offset="0.535" stop-color="#1C1C3C"/>
<stop offset="0.98" stop-color="#2E2E2E"/>
</linearGradient>
<linearGradient id="paint2_linear_58_37" x1="748.329" y1="784.137" x2="811.807" y2="784.137" gradientUnits="userSpaceOnUse">
<stop/>
<stop offset="0.535" stop-color="#1C1C3C"/>
<stop offset="0.98" stop-color="#2E2E2E"/>
</linearGradient>
<linearGradient id="paint3_linear_58_37" x1="370.124" y1="654.251" x2="450.86" y2="654.251" gradientUnits="userSpaceOnUse">
<stop/>
<stop offset="0.535" stop-color="#1C1C3C"/>
<stop offset="0.98" stop-color="#2E2E2E"/>
</linearGradient>
<linearGradient id="paint4_linear_58_37" x1="586.223" y1="601.659" x2="832.85" y2="601.659" gradientUnits="userSpaceOnUse">
<stop/>
<stop offset="0.535" stop-color="#1C1C3C"/>
<stop offset="0.98" stop-color="#2E2E2E"/>
</linearGradient>
<linearGradient id="paint5_linear_58_37" x1="727.002" y1="695.497" x2="828.734" y2="695.497" gradientUnits="userSpaceOnUse">
<stop/>
<stop offset="0.535" stop-color="#1C1C3C"/>
<stop offset="0.98" stop-color="#2E2E2E"/>
</linearGradient>
<linearGradient id="paint6_linear_58_37" x1="744.693" y1="791.92" x2="774.77" y2="791.92" gradientUnits="userSpaceOnUse">
<stop/>
<stop offset="0.535" stop-color="#1C1C3C"/>
<stop offset="0.98" stop-color="#2E2E2E"/>
</linearGradient>
<linearGradient id="paint7_linear_58_37" x1="727.002" y1="734.42" x2="772.118" y2="734.42" gradientUnits="userSpaceOnUse">
<stop/>
<stop offset="0.535" stop-color="#1C1C3C"/>
<stop offset="0.98" stop-color="#2E2E2E"/>
</linearGradient>
<linearGradient id="paint8_linear_58_37" x1="821.657" y1="753.882" x2="945.508" y2="753.882" gradientUnits="userSpaceOnUse">
<stop/>
<stop offset="0.535" stop-color="#1C1C3C"/>
<stop offset="0.98" stop-color="#2E2E2E"/>
</linearGradient>
<linearGradient id="paint9_linear_58_37" x1="405.653" y1="783.676" x2="469.132" y2="783.676" gradientUnits="userSpaceOnUse">
<stop/>
<stop offset="0.535" stop-color="#1C1C3C"/>
<stop offset="0.98" stop-color="#2E2E2E"/>
</linearGradient>
<linearGradient id="paint10_linear_58_37" x1="584.231" y1="783.676" x2="647.709" y2="783.676" gradientUnits="userSpaceOnUse">
<stop/>
<stop offset="0.535" stop-color="#1C1C3C"/>
<stop offset="0.98" stop-color="#2E2E2E"/>
</linearGradient>
<linearGradient id="paint11_linear_58_37" x1="817.856" y1="432.182" x2="1009.58" y2="432.182" gradientUnits="userSpaceOnUse">
<stop/>
<stop offset="0.535" stop-color="#1C1C3C"/>
<stop offset="0.98" stop-color="#2E2E2E"/>
</linearGradient>
<linearGradient id="paint12_linear_58_37" x1="893.064" y1="432.182" x2="934.375" y2="432.182" gradientUnits="userSpaceOnUse">
<stop/>
<stop offset="0.535" stop-color="#1C1C3C"/>
<stop offset="0.98" stop-color="#2E2E2E"/>
</linearGradient>
<linearGradient id="paint13_linear_58_37" x1="817.856" y1="298.883" x2="908.622" y2="298.883" gradientUnits="userSpaceOnUse">
<stop/>
<stop offset="0.535" stop-color="#1C1C3C"/>
<stop offset="0.98" stop-color="#2E2E2E"/>
</linearGradient>
<linearGradient id="paint14_linear_58_37" x1="817.856" y1="141.334" x2="1009.58" y2="141.334" gradientUnits="userSpaceOnUse">
<stop/>
<stop offset="0.535" stop-color="#1C1C3C"/>
<stop offset="0.98" stop-color="#2E2E2E"/>
</linearGradient>
<linearGradient id="paint15_linear_58_37" x1="244.15" y1="469.726" x2="266.322" y2="469.726" gradientUnits="userSpaceOnUse">
<stop/>
<stop offset="0.535" stop-color="#1C1C3C"/>
<stop offset="0.98" stop-color="#2E2E2E"/>
</linearGradient>
<linearGradient id="paint16_linear_58_37" x1="728.546" y1="374.603" x2="750.718" y2="374.603" gradientUnits="userSpaceOnUse">
<stop/>
<stop offset="0.535" stop-color="#1C1C3C"/>
<stop offset="0.98" stop-color="#2E2E2E"/>
</linearGradient>
<linearGradient id="paint17_linear_58_37" x1="971.329" y1="377.088" x2="1037.68" y2="377.088" gradientUnits="userSpaceOnUse">
<stop/>
<stop offset="0.535" stop-color="#1C1C3C"/>
<stop offset="0.98" stop-color="#2E2E2E"/>
</linearGradient>
<linearGradient id="paint18_linear_58_37" x1="156.108" y1="586.376" x2="210.47" y2="586.376" gradientUnits="userSpaceOnUse">
<stop/>
<stop offset="0.535" stop-color="#1C1C3C"/>
<stop offset="0.98" stop-color="#2E2E2E"/>
</linearGradient>
<linearGradient id="paint19_linear_58_37" x1="156.108" y1="625.299" x2="194.57" y2="625.299" gradientUnits="userSpaceOnUse">
<stop/>
<stop offset="0.535" stop-color="#1C1C3C"/>
<stop offset="0.98" stop-color="#2E2E2E"/>
</linearGradient>
<linearGradient id="paint20_linear_58_37" x1="68.1631" y1="640.393" x2="97.2653" y2="640.393" gradientUnits="userSpaceOnUse">
<stop/>
<stop offset="0.535" stop-color="#1C1C3C"/>
<stop offset="0.98" stop-color="#2E2E2E"/>
</linearGradient>
<linearGradient id="paint21_linear_58_37" x1="68.1631" y1="776.209" x2="119.417" y2="776.209" gradientUnits="userSpaceOnUse">
<stop/>
<stop offset="0.535" stop-color="#1C1C3C"/>
<stop offset="0.98" stop-color="#2E2E2E"/>
</linearGradient>
<linearGradient id="paint22_linear_58_37" x1="287.688" y1="684.076" x2="347.425" y2="684.076" gradientUnits="userSpaceOnUse">
<stop/>
<stop offset="0.535" stop-color="#1C1C3C"/>
<stop offset="0.98" stop-color="#2E2E2E"/>
</linearGradient>
<linearGradient id="paint23_linear_58_37" x1="236.803" y1="644.761" x2="342.386" y2="644.761" gradientUnits="userSpaceOnUse">
<stop/>
<stop offset="0.535" stop-color="#1C1C3C"/>
<stop offset="0.98" stop-color="#2E2E2E"/>
</linearGradient>
<linearGradient id="paint24_linear_58_37" x1="1063.36" y1="633.641" x2="1085.53" y2="633.641" gradientUnits="userSpaceOnUse">
<stop/>
<stop offset="0.535" stop-color="#1C1C3C"/>
<stop offset="0.98" stop-color="#2E2E2E"/>
</linearGradient>
<linearGradient id="paint25_linear_58_37" x1="751.598" y1="206.553" x2="818.753" y2="206.553" gradientUnits="userSpaceOnUse">
<stop/>
<stop offset="0.535" stop-color="#1C1C3C"/>
<stop offset="0.98" stop-color="#2E2E2E"/>
</linearGradient>
<linearGradient id="paint26_linear_58_37" x1="207.155" y1="815.415" x2="277.129" y2="815.415" gradientUnits="userSpaceOnUse">
<stop/>
<stop offset="0.535" stop-color="#1C1C3C"/>
<stop offset="0.98" stop-color="#2E2E2E"/>
</linearGradient>
<linearGradient id="paint27_linear_58_37" x1="235.417" y1="815.427" x2="248.85" y2="815.427" gradientUnits="userSpaceOnUse">
<stop/>
<stop offset="0.535" stop-color="#1C1C3C"/>
<stop offset="0.98" stop-color="#2E2E2E"/>
</linearGradient>
<linearGradient id="paint28_linear_58_37" x1="383.481" y1="881.215" x2="405.653" y2="881.215" gradientUnits="userSpaceOnUse">
<stop/>
<stop offset="0.535" stop-color="#1C1C3C"/>
<stop offset="0.98" stop-color="#2E2E2E"/>
</linearGradient>
<clipPath id="clip0_58_37">
<rect width="1112.27" height="950.59" fill="white" transform="translate(0.5)"/>
</clipPath>
<clipPath id="clip1_58_37">
<rect width="1112.27" height="950.59" fill="white" transform="translate(0.5)"/>
</clipPath>
<clipPath id="clip2_58_37">
<rect width="1112.26" height="950.59" fill="white" transform="translate(0.507324)"/>
</clipPath>
</defs>
</svg>
